<svg width="60" height="60" viewBox="0 0 60 60" fill="none" xmlns="http://www.w3.org/2000/svg">
<path d="M58.7014 0H1.29865C0.60037 0 0 0.59739 0 1.2955V48.6367C0 49.3338 0.59938 49.9332 1.29865 49.9332H23.7605V57.408H21.265C20.5658 57.408 19.9664 58.0054 19.9664 58.7035C19.9664 59.4016 20.5648 60 21.265 60C24.8583 60 32.0469 60 38.735 60C39.4343 60 40.0336 59.4016 40.0336 58.7035C40.0336 58.0054 39.4343 57.408 38.735 57.408H36.2396V49.9332H58.7014C59.4006 49.9332 60 49.3348 60 48.6367V1.2955C59.9001 0.598377 59.4006 0 58.7014 0ZM33.7441 57.3083H26.2569V49.8334H33.7441V57.3083ZM57.4037 47.3412C45.0245 47.3412 13.3782 47.3412 2.49642 47.3412V2.49227H57.4037V47.3412Z" fill="#FBF9FF"/>
<path d="M8.8858 43.6531H13.7777C14.477 43.6531 15.0754 43.0547 15.0754 42.3566C15.0754 41.6594 14.477 41.0611 13.7777 41.0611H10.0836V8.76924H13.7777C14.477 8.76924 15.0754 8.17086 15.0754 7.47275C15.0754 6.77464 14.477 6.17725 13.7777 6.17725H8.8858C8.18752 6.17725 7.58813 6.77464 7.58813 7.47275V42.3556C7.58813 43.0556 8.18752 43.6531 8.8858 43.6531Z" fill="#FBF9FF"/>
<path d="M46.2232 41.1616C45.5239 41.1616 44.9255 41.759 44.9255 42.4571C44.9255 43.1543 45.5239 43.7526 46.2232 43.7526H51.1151C51.8144 43.7526 52.4128 43.1553 52.4128 42.4571V7.57431C52.4128 6.87719 51.8144 6.27881 51.1151 6.27881H46.2232C45.5239 6.27881 44.9255 6.8762 44.9255 7.57431C44.9255 8.27242 45.5239 8.8708 46.2232 8.8708H49.9164V41.2614H46.2232V41.1616Z" fill="#FBF9FF"/>
<path d="M29.9511 39.8666C30.6494 39.8666 31.2488 39.2692 31.2488 38.5711C31.2488 37.873 30.6504 37.2756 29.9511 37.2756C23.0622 37.2756 17.472 31.6946 17.472 24.8172C17.472 17.9398 23.0622 12.3588 29.9511 12.3588C36.839 12.3588 42.4302 17.9398 42.4302 24.8172C42.4302 28.0066 41.2324 31.0962 39.0357 33.3881C38.5372 33.8867 38.5372 34.6836 39.0357 35.1822C39.5352 35.6809 40.3344 35.6809 40.8329 35.1822C43.4292 32.3917 44.9266 28.8034 44.9266 24.9169C44.9266 16.6453 38.2375 9.96729 29.9521 9.96729C21.6656 9.96729 14.9766 16.6453 14.9766 24.9169C14.9756 33.1886 21.7646 39.8666 29.9511 39.8666Z" fill="#FBF9FF"/>
<path d="M29.951 14.9497C29.2517 14.9497 28.6523 15.5471 28.6523 16.2452V27.5078C28.6523 28.2059 29.2507 28.8033 29.951 28.8033C30.6493 28.8033 31.2487 28.2059 31.2487 27.5078V16.2452C31.2487 15.5481 30.6493 14.9497 29.951 14.9497Z" fill="#FBF9FF"/>
<path d="M29.951 31.1948C29.2517 31.1948 28.6523 31.7932 28.6523 32.4913V33.7868C28.6523 34.4849 29.2507 35.0823 29.951 35.0823C30.6493 35.0823 31.2487 34.4849 31.2487 33.7868V32.4913C31.2487 31.6935 30.6493 31.1948 29.951 31.1948Z" fill="#FBF9FF"/>
</svg>
