<svg width="60" height="60" viewBox="0 0 60 60" fill="none" xmlns="http://www.w3.org/2000/svg">
<path d="M35.5794 41.3357C35.3312 41.3357 35.0817 41.2355 34.8907 41.0353C34.5076 40.6306 34.505 39.9729 34.8844 39.5656C35.4381 38.9715 36.7633 36.1594 36.2401 34.0659C35.96 32.9468 35.1746 32.2106 33.838 31.8168C33.5834 31.7423 33.3683 31.5597 33.241 31.3134C33.1137 31.0671 33.0869 30.7761 33.1646 30.5068C33.269 30.1509 33.2728 29.9641 33.2677 29.887C32.9902 29.7612 32.1144 29.8193 31.6319 29.8505C30.8987 29.8992 30.1413 29.9493 29.4844 29.7896C29.0096 29.6745 28.6226 29.4486 28.34 29.1332C26.3173 30.4337 24.2475 32.8953 23.8185 35.3637C23.546 36.9348 23.9827 38.3477 25.1156 39.5629C25.4962 39.9702 25.4924 40.6293 25.1093 41.0326C24.7261 41.4358 24.1062 41.4331 23.7268 41.0258C22.1394 39.322 21.5068 37.2339 21.8963 34.9861C22.5239 31.3702 25.7037 28.0506 28.3782 26.7637C28.6697 26.6229 29.0083 26.6432 29.2833 26.8178C29.5583 26.9924 29.7352 27.2996 29.7569 27.6392C29.7594 27.6731 29.7632 27.6961 29.7658 27.7082C30.0102 27.8747 30.9827 27.8097 31.5097 27.7746C32.7751 27.6907 34.0849 27.604 34.8194 28.5973C35.1771 29.0805 35.2484 29.6434 35.2204 30.1265C37.1082 30.9656 37.8466 32.4027 38.1279 33.53C38.8904 36.5789 37.1095 40.1286 36.2719 41.0271C36.0835 41.2328 35.8314 41.3357 35.5794 41.3357Z" fill="#FBF9FF"/>
<path d="M30.0929 48.209C30.0916 48.209 30.0916 48.209 30.0929 48.209H29.9096C26.3759 48.209 24.1698 44.639 23.5524 41.1016C23.0292 38.1027 23.5499 34.6492 25.8959 33.6883C26.162 33.5801 26.4599 33.599 26.7106 33.7438C28.8632 34.978 31.1393 34.978 33.2919 33.7438C33.5427 33.6004 33.8405 33.5801 34.1066 33.6883C36.4527 34.6492 36.9733 38.1041 36.4488 41.1016C35.8314 44.6404 33.6267 48.209 30.0929 48.209ZM29.9096 46.1303H30.0916C32.5026 46.1303 34.0569 43.4143 34.5279 40.7227C34.9124 38.5276 34.5712 36.5505 33.7349 35.8346C31.3086 37.0472 28.6939 37.0472 26.2677 35.8346C25.4313 36.5505 25.0902 38.5276 25.4746 40.7227C25.9443 43.4143 27.4986 46.1303 29.9096 46.1303Z" fill="#FBF9FF"/>
<path d="M42.4598 60H17.5428C17.003 60 16.5651 59.5345 16.5651 58.9607V58.4207C16.5651 51.81 20.2491 50.4391 22.9376 49.4377C25.1347 48.6204 26.1862 48.1399 26.1149 46.1628C26.0946 45.589 26.5146 45.1059 27.0544 45.0843C27.5916 45.0626 28.0486 45.5092 28.0689 46.083C28.2 49.6827 25.7483 50.5948 23.5843 51.4C21.0676 52.3364 18.6846 53.2228 18.5293 57.9214H41.4745C41.3192 53.2228 38.9362 52.3364 36.4196 51.4C34.2555 50.5948 31.8038 49.6827 31.9349 46.083C31.9553 45.5092 32.4085 45.0626 32.9495 45.0843C33.4892 45.1059 33.9093 45.589 33.8889 46.1628C33.8164 48.1399 34.8691 48.6204 37.0662 49.4377C39.756 50.4378 43.4387 51.8087 43.4387 58.4207V58.9607C43.4374 59.5345 42.9995 60 42.4598 60Z" fill="#FBF9FF"/>
<path d="M30 52.9995C28.0015 52.9995 26.0042 52.1334 24.3735 50.3999C23.9916 49.9939 23.9916 49.3362 24.3735 48.9302C24.7554 48.5242 25.3741 48.5242 25.756 48.9302C28.2548 51.5867 31.744 51.5867 34.2441 48.9302C34.626 48.5242 35.2446 48.5242 35.6265 48.9302C36.0084 49.3362 36.0084 49.9939 35.6265 50.3999C33.9971 52.1321 31.9986 52.9995 30 52.9995Z" fill="#FBF9FF"/>
<path d="M23.1362 60C22.5965 60 22.1586 59.5345 22.1586 58.9607V55.8265C22.1586 55.2528 22.5965 54.7872 23.1362 54.7872C23.6759 54.7872 24.1138 55.2528 24.1138 55.8265V58.9607C24.1138 59.5345 23.6759 60 23.1362 60Z" fill="#FBF9FF"/>
<path d="M36.8664 60C36.3266 60 35.8887 59.5345 35.8887 58.9607V55.8265C35.8887 55.2528 36.3266 54.7872 36.8664 54.7872C37.4061 54.7872 37.844 55.2528 37.844 55.8265V58.9607C37.844 59.5345 37.4061 60 36.8664 60Z" fill="#FBF9FF"/>
<path d="M43.0797 14.3826C42.54 14.3826 42.1021 13.917 42.1021 13.3432V6.01392C42.1021 5.44014 42.54 4.97461 43.0797 4.97461C43.6195 4.97461 44.0574 5.44014 44.0574 6.01392V13.3432C44.0574 13.917 43.6195 14.3826 43.0797 14.3826Z" fill="#FBF9FF"/>
<path d="M47.3174 19.4249C46.2825 19.4249 45.3584 18.6616 45.1203 17.5722C44.564 15.066 43.2516 14.4827 42.9588 14.3826H40.003C39.1972 14.3826 38.5403 13.6856 38.5403 12.8277V6.52953C38.5403 5.67291 39.1959 4.97462 40.003 4.97462H42.7424C44.7499 3.50767 47.945 3.80404 49.1836 3.91907L49.2154 3.92177C49.4649 3.94072 49.6877 3.98132 49.899 4.04357C51.0218 4.34535 51.7894 4.88395 52.1827 5.64449C52.3418 5.95168 52.4144 6.24805 52.4399 6.50652C53.1158 7.17098 53.1922 8.12098 53.0242 8.88287C53.5015 9.82475 53.3717 10.6787 53.0407 11.2768C53.2164 12.0333 53.1375 12.6747 52.8027 13.1903C52.1 14.2757 50.5737 14.2527 49.7475 14.2391H49.5706L49.6062 16.9727C49.6279 18.2272 48.7152 19.3004 47.5288 19.4127C47.4575 19.4221 47.3875 19.4249 47.3174 19.4249ZM40.4956 12.3039H43.0797C43.1396 12.3039 43.2007 12.3094 43.2592 12.3215C43.3751 12.3445 46.1005 12.9319 47.0234 17.0972C47.0234 17.0986 47.0234 17.0999 47.0247 17.1013C47.059 17.2596 47.1927 17.3584 47.3493 17.3435C47.5237 17.3273 47.6535 17.1784 47.651 17.0052L47.6026 13.2133C47.5988 12.9359 47.7006 12.6666 47.8839 12.469C48.0672 12.2715 48.318 12.1591 48.5802 12.1591H49.7552C49.7603 12.1591 49.7654 12.1591 49.7705 12.1591C50.7366 12.1754 51.0663 12.0752 51.1771 12.0116C51.1771 11.9413 51.1618 11.768 51.0409 11.446C50.869 10.9872 50.9479 10.5203 51.3311 10.251C51.4253 10.1333 51.3718 9.93436 51.172 9.65829C50.9429 9.34027 50.8945 8.93429 51.0651 8.57838C51.0842 8.53372 51.144 8.35103 51.144 8.18187C51.144 8.06143 51.1313 8.02625 51.0091 7.964C50.5852 7.74341 50.3726 7.23458 50.496 6.75688C50.5088 6.59719 50.2287 6.27376 49.4089 6.05588C49.3987 6.05318 49.3873 6.05047 49.3771 6.04641C49.2893 6.01935 49.1913 6.00311 49.0678 5.99363C49.0627 5.99363 49.0576 5.99228 49.0525 5.99228L49.013 5.98822C48.0316 5.89755 45.0465 5.62013 43.6895 6.81372C43.5138 6.96799 43.2936 7.05189 43.0657 7.05189H40.4931V12.3039H40.4956ZM50.5126 6.70275C50.5113 6.70545 50.5113 6.70681 50.51 6.70951C50.5113 6.70816 50.5113 6.70545 50.5126 6.70275Z" fill="#FBF9FF"/>
<path d="M14.065 18.8145C10.1073 18.8145 6.888 15.3921 6.888 11.1848C6.888 6.97748 10.1073 3.55505 14.065 3.55505C18.0226 3.55505 21.242 6.97748 21.242 11.1848C21.2407 15.3921 18.0214 18.8145 14.065 18.8145ZM14.065 5.63503C11.1855 5.63503 8.84328 8.12505 8.84328 11.1862C8.84328 14.2473 11.1855 16.7373 14.065 16.7373C16.9444 16.7373 19.2867 14.2473 19.2867 11.1862C19.2854 8.12505 16.9432 5.63503 14.065 5.63503Z" fill="#FBF9FF"/>
<path d="M12.7118 10.5514C12.5795 10.5514 12.4445 10.523 12.3147 10.4608L11.0137 9.84502C10.5198 9.61091 10.2983 8.99652 10.5185 8.47281C10.7387 7.94774 11.3167 7.71227 11.8093 7.94638L13.1103 8.56212C13.6042 8.79624 13.8257 9.41062 13.6055 9.93434C13.4438 10.3214 13.0861 10.5514 12.7118 10.5514Z" fill="#FBF9FF"/>
<path d="M15.4169 10.5514C15.0426 10.5514 14.6849 10.3214 14.5233 9.93435C14.3031 9.41063 14.5258 8.79625 15.0185 8.56213L16.3194 7.94639C16.8133 7.71363 17.39 7.9491 17.6102 8.47282C17.8304 8.99653 17.6077 9.61092 17.115 9.84503L15.8141 10.4608C15.6855 10.523 15.5493 10.5514 15.4169 10.5514Z" fill="#FBF9FF"/>
<path d="M12.1314 14.5152C11.92 14.5152 11.7075 14.4421 11.528 14.2932C11.1041 13.9387 11.0302 13.2851 11.3638 12.8344C12.0588 11.8939 13.0441 11.3539 14.065 11.3539C15.0859 11.3539 16.0712 11.8939 16.7662 12.8344C17.0997 13.2851 17.0259 13.9387 16.602 14.2932C16.1781 14.6478 15.5633 14.5693 15.2298 14.1187C14.9026 13.6762 14.4902 13.4326 14.0663 13.4326C13.6424 13.4326 13.2299 13.6762 12.9028 14.1187C12.708 14.3785 12.4216 14.5152 12.1314 14.5152Z" fill="#FBF9FF"/>
<path d="M17.0463 28.7191C17.003 28.7191 16.961 28.7178 16.9165 28.7137C15.9643 28.6339 15.6333 27.6879 15.282 26.6865C14.6468 24.8704 13.7773 22.3845 9.95078 22.3845H3.63941C1.63194 22.3845 0 20.6482 0 18.5155V3.87036C0 1.73625 1.63322 0 3.63941 0H24.4881C26.4955 0 28.1275 1.72948 28.1275 3.85682V18.5006C28.1275 20.6347 26.4942 22.3709 24.4868 22.3709H21.8874C21.7537 22.3709 21.6302 22.4467 21.5653 22.5699C18.9226 27.5688 18.0965 28.7178 17.0463 28.7191ZM3.63941 2.07998C2.71015 2.07998 1.95528 2.88382 1.95528 3.87036V18.5141C1.95528 19.502 2.71142 20.3045 3.63941 20.3045H9.95205C15.1368 20.3045 16.4735 24.1248 17.115 25.9598C17.1418 26.0356 17.171 26.1195 17.2003 26.2034C17.9908 25.0883 19.3516 22.5157 19.8608 21.5522C20.2694 20.7754 21.046 20.291 21.8874 20.291H24.4868C25.416 20.291 26.1709 19.4871 26.1709 18.5006V3.85682C26.1709 2.87706 25.4148 2.07863 24.4868 2.07863H3.63941V2.07998Z" fill="#FBF9FF"/>
<path d="M48.9201 28.7191C48.8768 28.7191 48.8348 28.7178 48.7903 28.7137C47.8381 28.6339 47.5071 27.6879 47.1558 26.6865C46.5206 24.8704 45.6511 22.3845 41.8246 22.3845H35.512C33.5045 22.3845 31.8726 20.6482 31.8726 18.5155V3.87036C31.8726 1.73625 33.5058 0 35.512 0H56.3606C58.3681 0 60 1.72948 60 3.85682V18.5006C60 20.6347 58.3668 22.3709 56.3606 22.3709H53.7612C53.6276 22.3709 53.5041 22.4467 53.4404 22.5699C50.7952 27.5688 49.9703 28.7178 48.9201 28.7191ZM35.5132 2.07998C34.584 2.07998 33.8291 2.88382 33.8291 3.87036V18.5141C33.8291 19.502 34.5853 20.3045 35.5132 20.3045H41.8259C47.0107 20.3045 48.3473 24.1248 48.9889 25.9598C49.0156 26.0356 49.0449 26.1195 49.0742 26.2034C49.8647 25.0883 51.2255 22.5157 51.7359 21.5522C52.1446 20.7754 52.9211 20.291 53.7625 20.291H56.3619C57.2912 20.291 58.046 19.4871 58.046 18.5006V3.85818C58.046 2.87841 57.2899 2.07998 56.3606 2.07998H35.5132Z" fill="#FBF9FF"/>
</svg>
