<svg width="60" height="60" viewBox="0 0 60 60" fill="none" xmlns="http://www.w3.org/2000/svg">
<path d="M54.5185 7.90774L47.2381 0.395387C47.089 0.27291 46.9236 0.173043 46.7469 0.0988468C46.4099 0 48.1048 0 12.3767 0C12.0445 0.00755379 11.7278 0.146405 11.4928 0.387626C11.2578 0.628848 11.1225 0.953838 11.1152 1.29489V37.6705C9.72675 38.0854 8.50688 38.9514 7.63867 40.1384C6.77047 41.3254 6.30077 42.7694 6.30008 44.2537V46.1417C6.13107 46.1391 5.96323 46.1708 5.80624 46.2351C5.64924 46.2994 5.50619 46.3949 5.38534 46.5162C5.26449 46.6375 5.16822 46.7821 5.10208 46.9418C5.03595 47.1015 5.00125 47.273 5 47.4465V58.6952C5.0049 59.038 5.13909 59.3655 5.37436 59.6088C5.60963 59.8521 5.92765 59.9924 6.26156 60H19.6572C19.992 59.9924 20.3111 59.8526 20.5479 59.6095C20.7847 59.3664 20.921 59.0389 20.9284 58.6952V54.8105H53.7384C54.0715 54.8054 54.3895 54.6674 54.625 54.4256C54.8605 54.1839 54.995 53.8575 55 53.5157V8.66886C54.8575 8.4036 54.6966 8.14923 54.5185 7.90774ZM47.527 4.28995L50.6375 7.47282H47.527V4.28995ZM23.2974 2.49094V11.2586L21.8432 9.28171C21.7363 9.12066 21.5927 8.98886 21.4249 8.89777C21.257 8.80668 21.0701 8.75906 20.8802 8.75906C20.6903 8.75906 20.5034 8.80668 20.3355 8.89777C20.1677 8.98886 20.0241 9.12066 19.9172 9.28171L18.4534 11.2586V2.49094H23.2974ZM8.68837 44.2537C8.67477 43.1802 9.05743 42.1412 9.75949 41.3454C10.4615 40.5497 11.431 40.056 12.473 39.9638C13.0648 39.8994 13.6631 39.9616 14.2302 40.1465C14.7973 40.3315 15.321 40.6351 15.768 41.0382C16.215 41.4413 16.5758 41.9352 16.8275 42.4886C17.0792 43.0421 17.2164 43.6431 17.2304 44.2537V46.1417H8.68837V44.2537ZM18.3956 57.3311H7.52311V48.5338H18.3956V57.3311ZM20.8224 52.3888V47.4465C20.8174 47.1046 20.6829 46.7782 20.4474 46.5365C20.2119 46.2947 19.8939 46.1567 19.5609 46.1516V43.8484C19.4826 42.2071 18.8313 40.6496 17.7261 39.4607C16.6209 38.2719 15.1356 37.5311 13.542 37.374V2.49094H15.9688V14.9456C15.9704 15.2151 16.0565 15.477 16.2144 15.6923C16.3722 15.9077 16.5933 16.0653 16.8451 16.1417C17.083 16.2324 17.3429 16.243 17.5871 16.1719C17.8312 16.1008 18.047 15.9518 18.203 15.7463L20.9284 12.0593L23.6441 15.7463C23.8001 15.9518 24.0158 16.1008 24.26 16.1719C24.5042 16.243 24.764 16.2324 25.0019 16.1417C25.2514 16.0612 25.4701 15.9026 25.6272 15.6881C25.7844 15.4736 25.8722 15.214 25.8783 14.9456V2.49094H45.2928V8.76771C45.2977 9.10955 45.4322 9.43595 45.6678 9.67769C45.9033 9.91944 46.2213 10.0575 46.5543 10.0626H52.3806V52.3888H20.8224Z" fill="#FBF9FF"/>
<path d="M13.5419 53.6159H12.2804C11.9458 53.6159 11.6249 53.7523 11.3883 53.9951C11.1517 54.238 11.0188 54.5673 11.0188 54.9108C11.0188 55.2542 11.1517 55.5836 11.3883 55.8264C11.6249 56.0692 11.9458 56.2057 12.2804 56.2057H13.5419C13.8749 56.2006 14.1929 56.0625 14.4285 55.8208C14.664 55.579 14.7985 55.2526 14.8035 54.9108C14.8088 54.7392 14.7798 54.5684 14.7183 54.4088C14.6568 54.2492 14.5641 54.1043 14.4459 53.9829C14.3276 53.8616 14.1864 53.7664 14.0309 53.7032C13.8755 53.6401 13.709 53.6104 13.5419 53.6159Z" fill="#FBF9FF"/>
<path d="M13.5419 49.8281H12.2804C11.9458 49.8281 11.6249 49.9646 11.3883 50.2074C11.1517 50.4502 11.0188 50.7796 11.0188 51.123C11.0188 51.4664 11.1517 51.7958 11.3883 52.0386C11.6249 52.2815 11.9458 52.4179 12.2804 52.4179H13.5419C13.8765 52.4179 14.1974 52.2815 14.434 52.0386C14.6706 51.7958 14.8035 51.4664 14.8035 51.123C14.8035 50.7796 14.6706 50.4502 14.434 50.2074C14.1974 49.9646 13.8765 49.8281 13.5419 49.8281Z" fill="#FBF9FF"/>
<path d="M29.3741 43.6504C29.0395 43.6504 28.7186 43.7868 28.482 44.0297C28.2455 44.2725 28.1125 44.6019 28.1125 44.9453C28.1125 45.2887 28.2455 45.6181 28.482 45.8609C28.7186 46.1037 29.0395 46.2402 29.3741 46.2402H30.6357C30.9702 46.2402 31.2911 46.1037 31.5277 45.8609C31.7643 45.6181 31.8972 45.2887 31.8972 44.9453C31.8972 44.6019 31.7643 44.2725 31.5277 44.0297C31.2911 43.7868 30.9702 43.6504 30.6357 43.6504H29.3741Z" fill="#FBF9FF"/>
<path d="M26.9474 44.8476C26.9424 44.5058 26.8079 44.1794 26.5724 43.9376C26.3369 43.6959 26.0189 43.5578 25.6858 43.5527H24.4146C24.08 43.5527 23.7592 43.6892 23.5226 43.932C23.286 44.1748 23.1531 44.5042 23.1531 44.8476C23.1531 45.1911 23.286 45.5204 23.5226 45.7633C23.7592 46.0061 24.08 46.1425 24.4146 46.1425H25.6858C26.0189 46.1374 26.3369 45.9994 26.5724 45.7576C26.8079 45.5159 26.9424 45.1895 26.9474 44.8476Z" fill="#FBF9FF"/>
<path d="M48.7885 23.7227H17.2303C16.8957 23.7227 16.5748 23.8591 16.3383 24.1019C16.1017 24.3448 15.9688 24.6741 15.9688 25.0175C15.9688 25.361 16.1017 25.6903 16.3383 25.9332C16.5748 26.176 16.8957 26.3124 17.2303 26.3124H48.7885C49.1215 26.3073 49.4395 26.1693 49.675 25.9275C49.9105 25.6858 50.0451 25.3594 50.05 25.0175C50.0295 24.681 49.8901 24.3637 49.6578 24.1253C49.4255 23.8869 49.1164 23.7437 48.7885 23.7227Z" fill="#FBF9FF"/>
<path d="M48.7885 27.4102H17.2303C16.8957 27.4102 16.5748 27.5466 16.3383 27.7894C16.1017 28.0323 15.9688 28.3616 15.9688 28.7051C15.9688 29.0485 16.1017 29.3778 16.3383 29.6207C16.5748 29.8635 16.8957 29.9999 17.2303 29.9999H48.7885C48.9567 29.9974 49.1227 29.9608 49.2772 29.8923C49.4316 29.8239 49.5714 29.7249 49.6885 29.601C49.8057 29.477 49.8979 29.3306 49.9599 29.1701C50.022 29.0096 50.0526 28.8382 50.05 28.6655C50.0207 28.336 49.8773 28.0282 49.6458 27.7979C49.4144 27.5676 49.1102 27.4301 48.7885 27.4102Z" fill="#FBF9FF"/>
<path d="M48.7885 31.1973H17.2303C16.8957 31.1973 16.5748 31.3337 16.3383 31.5765C16.1017 31.8194 15.9688 32.1487 15.9688 32.4922C15.9688 32.8356 16.1017 33.1649 16.3383 33.4078C16.5748 33.6506 16.8957 33.7871 17.2303 33.7871H48.7885C49.1215 33.7819 49.4395 33.6439 49.675 33.4021C49.9105 33.1604 50.0451 32.834 50.05 32.4922C50.0295 32.1556 49.8901 31.8383 49.6578 31.5999C49.4255 31.3615 49.1164 31.2183 48.7885 31.1973Z" fill="#FBF9FF"/>
<path d="M34.2276 36.1779C34.2251 36.0052 34.1895 35.8348 34.1228 35.6762C34.0561 35.5177 33.9596 35.3742 33.8389 35.254C33.7182 35.1337 33.5755 35.0391 33.4192 34.9754C33.2628 34.9118 33.0957 34.8803 32.9275 34.883H17.2303C16.8957 34.883 16.5748 35.0194 16.3383 35.2622C16.1017 35.5051 15.9688 35.8344 15.9688 36.1779C15.9688 36.5213 16.1017 36.8506 16.3383 37.0935C16.5748 37.3363 16.8957 37.4727 17.2303 37.4727H32.9275C33.2556 37.4415 33.5634 37.296 33.7999 37.0605C34.0364 36.8249 34.1873 36.5135 34.2276 36.1779Z" fill="#FBF9FF"/>
<path d="M31.8008 18.7794H47.5269C47.8437 18.751 48.1386 18.6017 48.3535 18.3611C48.5684 18.1205 48.6876 17.8059 48.6876 17.4795C48.6876 17.1531 48.5684 16.8386 48.3535 16.5979C48.1386 16.3573 47.8437 16.2081 47.5269 16.1797H31.8008C31.484 16.2081 31.1891 16.3573 30.9742 16.5979C30.7593 16.8386 30.6401 17.1531 30.6401 17.4795C30.6401 17.8059 30.7593 18.1205 30.9742 18.3611C31.1891 18.6017 31.484 18.751 31.8008 18.7794Z" fill="#FBF9FF"/>
<path d="M43.9348 47.3379H26.9471C26.6125 47.3379 26.2916 47.4743 26.055 47.7172C25.8185 47.96 25.6855 48.2894 25.6855 48.6328C25.6855 48.9762 25.8185 49.3056 26.055 49.5484C26.2916 49.7912 26.6125 49.9277 26.9471 49.9277H43.9348C44.2678 49.9226 44.5858 49.7845 44.8213 49.5428C45.0569 49.301 45.1914 48.9746 45.1963 48.6328C45.1577 48.3031 45.0123 47.9963 44.7836 47.7615C44.5548 47.5268 44.2559 47.3776 43.9348 47.3379Z" fill="#FBF9FF"/>
<path d="M48.7885 43.6504H34.2276C33.893 43.6504 33.5722 43.7868 33.3356 44.0297C33.099 44.2725 32.9661 44.6019 32.9661 44.9453C32.9661 45.2887 33.099 45.6181 33.3356 45.8609C33.5722 46.1037 33.893 46.2402 34.2276 46.2402H48.7885C49.1215 46.2351 49.4395 46.097 49.675 45.8553C49.9106 45.6135 50.0451 45.2871 50.05 44.9453C50.0316 44.608 49.8928 44.2895 49.6601 44.0507C49.4274 43.8118 49.1171 43.6693 48.7885 43.6504Z" fill="#FBF9FF"/>
</svg>
