<svg width="60" height="60" viewBox="0 0 60 60" fill="none" xmlns="http://www.w3.org/2000/svg">
<path d="M43.8813 39.1702C43.2892 39.1702 42.7957 38.9331 42.7135 38.8823C42.7135 38.8823 42.6971 38.8823 42.6971 38.8654C38.0918 36.3082 40.9372 29.094 41.1346 28.6029C41.3648 28.0102 41.4471 27.5699 41.4471 27.282H36.9734C35.9044 27.282 35.0162 26.7739 34.5557 25.8933C34.0952 25.0127 34.0952 23.8442 34.5557 22.7604C33.7991 21.829 33.7004 20.9653 33.7827 20.3726C33.8813 19.5089 34.3583 18.8315 34.8353 18.3404C33.7333 17.0025 33.9471 15.834 34.1116 15.326C34.2432 14.9365 34.4734 14.5809 34.753 14.293C34.3912 13.7849 34.1609 13.1583 34.1609 12.481C34.1609 10.8383 35.4274 9.50043 36.9734 9.50043L39.9175 9.51736C40.3616 9.51736 40.7563 9.83912 40.8714 10.2794C41.5786 13.2938 44.1773 15.3937 47.1872 15.3937C49.4404 15.3937 51.5128 14.2083 52.7134 12.2439C52.9437 11.8713 53.3878 11.685 53.8154 11.8036C54.2266 11.9221 54.5226 12.3285 54.5226 12.7688V23.895C54.5226 24.3522 54.2266 24.7587 53.799 24.8772C50.526 25.7578 45.9701 32.1423 45.7398 36.1219C45.9043 37.409 45.6411 38.3065 44.9832 38.7976C44.5885 39.0855 44.2267 39.1702 43.8813 39.1702ZM43.5852 37.0872C43.6346 37.1042 43.7003 37.138 43.7661 37.138C43.7826 37.0195 43.799 36.7655 43.7497 36.3252C43.7332 36.2574 43.7332 36.2066 43.7332 36.1389C43.9306 31.4987 48.5194 24.8772 52.5325 23.2007V15.4445C51.0358 16.7147 49.1608 17.4259 47.1707 17.4259C43.5194 17.4259 40.3287 15.0381 39.1609 11.5495L36.957 11.5326C36.4965 11.5326 36.1017 11.956 36.1017 12.4979C36.1017 12.9551 36.4471 13.4632 36.957 13.4632C37.4997 13.4632 37.9274 13.9204 37.9274 14.4623C37.9274 15.0212 37.4833 15.4615 36.957 15.4615C36.4636 15.4615 36.0359 15.6816 35.9372 15.9865C35.8221 16.3082 36.0359 16.9179 36.9241 17.6291C37.1872 17.8323 37.3188 18.171 37.3024 18.5097C37.2695 18.8484 37.0886 19.1533 36.7925 19.3057C36.5293 19.4581 35.7728 20 35.707 20.5927C35.6576 21.033 36.0524 21.4903 36.3978 21.812C36.7596 22.1507 36.8254 22.6926 36.5622 23.116C36.1182 23.8103 36.0853 24.5385 36.2826 24.9111C36.332 24.9958 36.4636 25.2498 36.9734 25.2498H42.1379C42.4504 25.2498 42.73 25.4022 42.9273 25.6562C43.5523 26.5199 43.5688 27.7223 42.9602 29.3311C42.9602 29.348 42.9602 29.348 42.9438 29.3649C42.9109 29.4496 40.526 35.3599 43.5852 37.0872Z" fill="white"/>
<path d="M59.0292 24.945H53.5193C52.9766 24.945 52.549 24.4877 52.549 23.9458C52.549 23.4039 52.993 22.9467 53.5193 22.9467H58.0588V11.6511H54.4239C53.8812 11.6511 53.4535 11.1939 53.4535 10.652C53.4535 10.0931 53.8976 9.65283 54.4239 9.65283H59.0292C59.5719 9.65283 59.9996 10.1101 59.9996 10.652V23.9627C60.016 24.4877 59.5719 24.945 59.0292 24.945Z" fill="white"/>
<path d="M37.6806 15.4784H36.3978C35.855 15.4784 35.4274 15.0212 35.4274 14.4793C35.4274 13.9373 35.8714 13.4801 36.3978 13.4801H37.6806C38.2234 13.4801 38.651 13.9373 38.651 14.4793C38.651 15.0212 38.2234 15.4784 37.6806 15.4784Z" fill="white"/>
<path d="M37.6806 19.4581H36.0524C35.5096 19.4581 35.082 19.0008 35.082 18.4589C35.082 17.9001 35.526 17.4598 36.0524 17.4598H37.6806C38.2234 17.4598 38.651 17.917 38.651 18.4589C38.6675 19.0008 38.2234 19.4581 37.6806 19.4581Z" fill="white"/>
<path d="M37.6807 23.6071H35.7234C35.1807 23.6071 34.7531 23.1499 34.7531 22.608C34.7531 22.0491 35.1971 21.6088 35.7234 21.6088H37.6807C38.2234 21.6088 38.651 22.0661 38.651 22.608C38.6675 23.1499 38.2234 23.6071 37.6807 23.6071Z" fill="white"/>
<path d="M36.8583 60H1.72696C0.773021 60 0 59.2041 0 58.2218V46.486C0 42.0152 2.77958 38.1202 6.92429 36.7824L14.4242 34.4623V31.8713C14.4242 31.3124 14.8683 30.8721 15.3946 30.8721C15.9209 30.8721 16.365 31.3294 16.365 31.8713V35.2074C16.365 35.6477 16.0854 36.0372 15.6742 36.1727L7.4835 38.7129C4.1776 39.7798 1.94077 42.8958 1.94077 46.486V57.9848H36.628V46.486C36.628 42.8958 34.3912 39.7798 31.0853 38.7129L22.911 36.1727C22.4998 36.0372 22.2202 35.6477 22.2202 35.2074V31.8713C22.2202 31.3124 22.6643 30.8721 23.1906 30.8721C23.7169 30.8721 24.161 31.3294 24.161 31.8713V34.4623L31.6609 36.7824C35.8057 38.1202 38.5852 42.0152 38.5852 46.486V58.2218C38.6017 59.2041 37.8122 60 36.8583 60Z" fill="white"/>
<path d="M19.2926 34.293C18.4867 34.293 17.6808 34.1406 16.9571 33.8527C16.217 33.5648 15.5098 33.1753 14.8519 32.718C11.9078 30.6859 10.1479 27.282 10.1479 23.624V21.1177C10.1479 20.5588 10.592 20.1185 11.1183 20.1185C11.6446 20.1185 12.0887 20.5758 12.0887 21.1177V23.624C12.0887 26.6046 13.5196 29.3819 15.9209 31.0415C16.4637 31.414 17.0393 31.7189 17.6479 31.9729C18.1578 32.1761 18.717 32.2777 19.2762 32.2777C19.8189 32.2777 20.3781 32.1761 20.9044 31.9729C21.5294 31.7189 22.1051 31.414 22.6314 31.0415C25.0327 29.3649 26.4636 26.6046 26.4636 23.624V20.9314C26.4636 20.3726 26.9077 19.9323 27.434 19.9323C27.9603 19.9323 28.4044 20.3895 28.4044 20.9314V23.624C28.4044 27.265 26.6445 30.6689 23.7005 32.718C23.059 33.1583 22.3518 33.5478 21.5952 33.8527C21.5952 33.8527 21.5952 33.8527 21.5788 33.8527C20.8716 34.1406 20.0656 34.293 19.2926 34.293Z" fill="white"/>
<path d="M14.7038 42.6927C14.6051 42.6927 14.49 42.6757 14.3913 42.6419C14.0952 42.5403 13.865 42.3032 13.7827 41.9983L11.9735 36.2913C11.8091 35.7663 12.0887 35.1905 12.5985 35.0212C13.1084 34.8519 13.6676 35.1397 13.8321 35.6647L15.2465 40.0847L18.7662 37.5953C19.2103 37.2735 19.8189 37.3921 20.1314 37.8493C20.4439 38.3065 20.3287 38.9331 19.8847 39.2549L15.2959 42.5064C15.0821 42.6419 14.8847 42.6927 14.7038 42.6927Z" fill="white"/>
<path d="M23.8814 42.6926C23.6841 42.6926 23.4867 42.6249 23.3222 42.5233L18.7334 39.2718C18.2894 38.95 18.1742 38.3235 18.4867 37.8662C18.7992 37.409 19.4078 37.2904 19.8518 37.6122L23.3716 40.1016L24.786 35.6816C24.9505 35.1566 25.5097 34.8688 26.0196 35.0381C26.5294 35.2075 26.809 35.7832 26.6446 36.3082L24.8354 42.0152C24.7367 42.3201 24.5064 42.5572 24.2268 42.6588C24.0952 42.6757 23.9966 42.6926 23.8814 42.6926Z" fill="white"/>
<path d="M19.2926 39.4412C19.0788 39.4412 18.865 39.3734 18.684 39.221L14.7861 36.0034C14.3584 35.6478 14.2926 35.0212 14.638 34.5809C14.9834 34.1406 15.592 34.0728 16.0196 34.4285L19.9176 37.6461C20.3452 38.0017 20.411 38.6283 20.0656 39.0686C19.8682 39.3057 19.5722 39.4412 19.2926 39.4412Z" fill="white"/>
<path d="M19.2926 39.4412C19.013 39.4412 18.717 39.3057 18.5361 39.0686C18.1907 38.6283 18.2729 38.0017 18.6841 37.6461L22.5821 34.4285C23.0097 34.0728 23.6183 34.1575 23.9636 34.5809C24.309 35.0212 24.2268 35.6478 23.8156 36.0034L19.9176 39.221C19.7203 39.3565 19.5064 39.4412 19.2926 39.4412Z" fill="white"/>
<path d="M22.7465 23.0483C22.6972 23.0483 22.6643 23.0483 22.615 23.0483C18.24 22.4725 15.3782 21.5241 13.9473 20.1694C13.569 20.5589 13.0756 21.0161 12.5164 21.4225C9.93413 23.3023 8.14138 22.5233 7.30258 21.8798C6.8585 21.558 6.77626 20.9145 7.08876 20.4742C7.40126 20.0169 8.02625 19.9323 8.45388 20.254C10.3289 21.6596 13.2236 18.0186 13.24 17.9848C13.4538 17.7138 13.7828 17.5614 14.1282 17.6122C14.4736 17.663 14.7532 17.8832 14.9012 18.188C15.0657 18.5605 15.9209 19.729 20.1808 20.5927C19.5229 19.7799 18.7992 18.8146 18.2235 17.8662C17.9439 17.392 18.0755 16.7824 18.536 16.4776C20.4604 15.2413 23.0261 16.9179 25.5097 18.5605C26.9077 19.475 28.7991 20.7282 29.5228 20.508C29.5721 20.4911 29.6708 20.4742 29.786 20.2202C30.0162 19.7121 30.6083 19.5089 31.0853 19.746C31.5623 19.9831 31.7761 20.5927 31.5458 21.0838C31.1346 21.9644 30.5096 22.3031 30.0656 22.4386C28.5031 22.8959 26.6281 21.6766 24.4571 20.2371C23.3222 19.492 21.9077 18.5605 20.8387 18.2049C22.0558 19.8645 23.4209 21.304 23.4373 21.3209C23.7334 21.6257 23.7992 22.083 23.6182 22.4725C23.4538 22.8451 23.1084 23.0483 22.7465 23.0483Z" fill="white"/>
<path d="M24.5064 31.7866C23.9801 31.7866 23.5525 31.3633 23.5361 30.8044C23.5196 30.2456 23.9472 29.7883 24.49 29.7714C25.3124 29.7375 28.8814 29.5851 31.8913 28.6706C30.5261 27.79 29.3255 26.3844 29.5886 24.3522C30.559 16.7655 27.1216 13.2769 24.9834 11.8882C21.5953 9.66977 17.0394 9.66977 13.6513 11.8882C11.5131 13.2938 8.07564 16.7824 9.04603 24.3522C9.30919 26.3844 8.10854 27.8069 6.74342 28.6706C9.75326 29.5851 13.3059 29.7375 14.1282 29.7714C14.671 29.7883 15.0986 30.2456 15.0822 30.8044C15.0657 31.3633 14.6216 31.8036 14.0789 31.7866C12.5164 31.7358 7.1217 31.431 3.68423 29.602C3.32239 29.4158 3.10857 28.9924 3.15792 28.5859C3.20726 28.1626 3.51975 27.8239 3.91449 27.7392C3.94738 27.7392 7.38486 26.8925 7.10525 24.6232C6.29934 18.2726 8.3059 13.0059 12.5986 10.1948C16.6118 7.55292 22.0065 7.55292 26.036 10.1948C30.3452 13.0229 32.3518 18.2726 31.5294 24.6232C31.2334 26.8925 34.6873 27.7223 34.7202 27.7392C35.1149 27.8408 35.4274 28.1795 35.4768 28.5859C35.5261 29.0093 35.3287 29.4158 34.9504 29.602C31.513 31.431 26.1183 31.7358 24.5558 31.7866C24.5229 31.7866 24.5064 31.7866 24.5064 31.7866Z" fill="white"/>
<path d="M31.6117 60C31.0689 60 30.6413 59.5428 30.6413 59.0009V50.9399C30.6413 50.381 31.0853 49.9407 31.6117 49.9407C32.1544 49.9407 32.582 50.398 32.582 50.9399V59.0009C32.5985 59.5597 32.1544 60 31.6117 60ZM6.97368 60C6.43092 60 6.0033 59.5428 6.0033 59.0009V50.9399C6.0033 50.381 6.44737 49.9407 6.97368 49.9407C7.5 49.9407 7.94407 50.398 7.94407 50.9399V59.0009C7.94407 59.5597 7.5 60 6.97368 60Z" fill="white"/>
<path d="M19.2927 60C18.7499 60 18.3223 59.5428 18.3223 59.0008V38.4251C18.3223 37.8662 18.7663 37.4259 19.2927 37.4259C19.8354 37.4259 20.263 37.8831 20.263 38.4251V59.0008C20.263 59.5597 19.8354 60 19.2927 60Z" fill="white"/>
<path d="M45.2628 11.685C45.0161 11.685 44.7694 11.5834 44.572 11.3971C44.1938 11.0076 44.1938 10.3641 44.572 9.9746L48.3714 6.04573C48.7496 5.65623 49.3746 5.65623 49.7529 6.04573C50.1312 6.43523 50.1312 7.07875 49.7529 7.46825L45.9536 11.3802C45.7562 11.5834 45.5095 11.685 45.2628 11.685Z" fill="white"/>
<path d="M49.0786 11.685C48.8319 11.685 48.5851 11.5834 48.3878 11.3971L44.5885 7.48516C44.2102 7.09566 44.2102 6.45213 44.5885 6.06263C44.9668 5.67313 45.5917 5.67313 45.97 6.06263L49.7693 9.97457C50.1476 10.3641 50.1476 11.0076 49.7693 11.3971C49.572 11.5834 49.3253 11.685 49.0786 11.685Z" fill="white"/>
<path d="M47.1707 17.4428C42.4997 17.4428 38.7004 13.5309 38.7004 8.72142C38.7004 3.91194 42.4997 0 47.1707 0C51.8417 0 55.641 3.91194 55.641 8.72142C55.641 13.5309 51.8417 17.4428 47.1707 17.4428ZM47.1707 2.01524C43.5852 2.01524 40.6576 5.02964 40.6576 8.72142C40.6576 12.4132 43.5852 15.4276 47.1707 15.4276C50.7562 15.4276 53.6838 12.4132 53.6838 8.72142C53.6838 5.02964 50.7562 2.01524 47.1707 2.01524Z" fill="white"/>
</svg>
