<svg width="60" height="60" viewBox="0 0 60 60" fill="none" xmlns="http://www.w3.org/2000/svg">
<path d="M58.6589 2H8.0887C7.72436 2.00789 7.37717 2.15292 7.11948 2.40487C6.86179 2.65683 6.71346 2.99628 6.70539 3.35251V26.7788H1.42555C1.24112 26.776 1.05793 26.8088 0.886469 26.8753C0.715004 26.9418 0.558617 27.0407 0.426237 27.1663C0.293858 27.2919 0.188081 27.4418 0.114946 27.6073C0.0418116 27.7729 0.00275266 27.9509 0 28.1313L0 56.6475C0.00545135 57.0045 0.152943 57.3455 0.411193 57.598C0.669443 57.8505 1.01814 57.9947 1.38332 58H51.9535C52.3187 57.9947 52.6674 57.8505 52.9257 57.598C53.1839 57.3455 53.3314 57.0045 53.3369 56.6475V33.2316H58.6167C58.9819 33.2262 59.3306 33.082 59.5888 32.8295C59.8471 32.577 59.9946 32.2361 60 31.8791V3.24926C59.9403 2.92911 59.7784 2.63571 59.5374 2.41123C59.2964 2.18676 58.9889 2.04278 58.6589 2ZM9.36642 4.60177H57.2756V7.16224H9.36642V4.60177ZM6.70539 29.3805V31.941C6.71346 32.2972 6.86179 32.6367 7.11948 32.8886C7.37717 33.1406 7.72436 33.2856 8.0887 33.2935H35.9873V35.792H2.76663V29.2773H6.70539V29.3805ZM38.6484 43.6386H45.4065V50.1947H38.6484V43.6386ZM50.6864 55.3982H2.76663V38.4351H35.9873V41.0369H30.623C30.4414 41.0369 30.2615 41.0719 30.0936 41.1398C29.9258 41.2078 29.7733 41.3074 29.6449 41.433C29.5164 41.5586 29.4145 41.7077 29.345 41.8718C29.2755 42.0359 29.2397 42.2118 29.2397 42.3894C29.2397 42.567 29.2755 42.7429 29.345 42.907C29.4145 43.0711 29.5164 43.2202 29.6449 43.3457C29.7733 43.4713 29.9258 43.571 30.0936 43.6389C30.2615 43.7069 30.4414 43.7419 30.623 43.7419H35.9029V51.4439C35.9083 51.801 36.0558 52.1419 36.314 52.3944C36.5723 52.6469 36.921 52.7911 37.2862 52.7965H46.547C46.9122 52.7911 47.2609 52.6469 47.5191 52.3944C47.7774 52.1419 47.9249 51.801 47.9303 51.4439V42.2655C47.9249 41.9084 47.7774 41.5675 47.5191 41.315C47.2609 41.0625 46.9122 40.9183 46.547 40.913H38.6484V33.1283H50.6864V55.3982ZM9.37698 30.6195V9.80531H57.2756V14.9676H25.3432C24.9763 14.9676 24.6245 15.11 24.365 15.3637C24.1056 15.6173 23.9599 15.9614 23.9599 16.3201C23.9599 16.6788 24.1056 17.0228 24.365 17.2764C24.6245 17.5301 24.9763 17.6726 25.3432 17.6726H57.2756V30.6298L9.37698 30.6195Z" fill="#FBF9FF"/>
<path d="M34.7096 20.213H26.7265C26.3792 20.2427 26.0558 20.3985 25.8202 20.6499C25.5846 20.9012 25.4539 21.2298 25.4539 21.5707C25.4539 21.9116 25.5846 22.2402 25.8202 22.4915C26.0558 22.7428 26.3792 22.8987 26.7265 22.9284H34.7096C35.0669 22.921 35.4082 22.7817 35.6648 22.5385C35.9214 22.2953 36.0744 21.9661 36.0929 21.6171C36.0785 21.258 35.9296 20.9166 35.6746 20.6577C35.4196 20.3988 35.0762 20.2406 34.7096 20.213Z" fill="#FBF9FF"/>
<path d="M53.3368 20.213H45.4065C45.0591 20.2427 44.7357 20.3985 44.5001 20.6499C44.2645 20.9012 44.1338 21.2298 44.1338 21.5707C44.1338 21.9116 44.2645 22.2402 44.5001 22.4915C44.7357 22.7428 45.0591 22.8987 45.4065 22.9284H53.3896C53.7384 22.9107 54.068 22.7666 54.314 22.5242C54.56 22.2817 54.7048 21.9583 54.7201 21.6171C54.7079 21.2573 54.5598 20.9146 54.3043 20.6552C54.0488 20.3959 53.7041 20.2384 53.3368 20.213Z" fill="#FBF9FF"/>
<path d="M41.3094 20.213H38.6484C38.301 20.2427 37.9776 20.3985 37.742 20.6499C37.5064 20.9012 37.3757 21.2298 37.3757 21.5707C37.3757 21.9116 37.5064 22.2402 37.742 22.4915C37.9776 22.7428 38.301 22.8987 38.6484 22.9284H41.3094C41.6568 22.8987 41.9802 22.7428 42.2158 22.4915C42.4514 22.2402 42.5821 21.9116 42.5821 21.5707C42.5821 21.2298 42.4514 20.9012 42.2158 20.6499C41.9802 20.3985 41.6568 20.2427 41.3094 20.213Z" fill="#FBF9FF"/>
<path d="M14.6884 50.195H6.70534C6.33846 50.195 5.98661 50.3375 5.72719 50.5912C5.46776 50.8448 5.32202 51.1888 5.32202 51.5475C5.32202 51.9062 5.46776 52.2502 5.72719 52.5039C5.98661 52.7575 6.33846 52.9 6.70534 52.9H14.6884C15.0518 52.8948 15.399 52.752 15.6569 52.5017C15.9149 52.2514 16.0636 51.9131 16.0718 51.5579C16.0791 51.3778 16.0484 51.1983 15.9817 51.0304C15.9149 50.8624 15.8134 50.7098 15.6836 50.5819C15.5538 50.454 15.3985 50.3537 15.2273 50.2871C15.056 50.2206 14.8726 50.1892 14.6884 50.195Z" fill="#FBF9FF"/>
<path d="M33.3261 50.195H25.343C24.9762 50.195 24.6243 50.3375 24.3649 50.5912C24.1055 50.8448 23.9597 51.1888 23.9597 51.5475C23.9597 51.9062 24.1055 52.2502 24.3649 52.5039C24.6243 52.7575 24.9762 52.9 25.343 52.9H33.3261C33.6895 52.8948 34.0367 52.752 34.2946 52.5017C34.5526 52.2514 34.7013 51.9131 34.7095 51.5579C34.7168 51.3778 34.6861 51.1983 34.6194 51.0304C34.5526 50.8624 34.4511 50.7098 34.3213 50.5819C34.1915 50.454 34.0362 50.3537 33.8649 50.2871C33.6937 50.2206 33.5103 50.1892 33.3261 50.195Z" fill="#FBF9FF"/>
<path d="M21.3937 50.1943H18.7327C18.3658 50.1943 18.014 50.3368 17.7545 50.5905C17.4951 50.8441 17.3494 51.1881 17.3494 51.5468C17.3494 51.9056 17.4951 52.2496 17.7545 52.5032C18.014 52.7569 18.3658 52.8993 18.7327 52.8993H21.3937C21.7581 52.8942 22.1064 52.7518 22.3661 52.5017C22.6258 52.2517 22.7768 51.9133 22.7876 51.5572C22.7651 51.2029 22.611 50.8689 22.3544 50.6179C22.0977 50.3669 21.756 50.2163 21.3937 50.1943Z" fill="#FBF9FF"/>
<path d="M6.70534 48.8424H8.08866C8.45553 48.8424 8.80738 48.6999 9.06681 48.4462C9.32623 48.1926 9.47197 47.8486 9.47197 47.4899C9.47197 47.1312 9.32623 46.7871 9.06681 46.5335C8.80738 46.2799 8.45553 46.1374 8.08866 46.1374H6.70534C6.5209 46.1346 6.33772 46.1675 6.16625 46.2339C5.99479 46.3004 5.8384 46.3993 5.70602 46.5249C5.57364 46.6505 5.46787 46.8004 5.39473 46.9659C5.3216 47.1315 5.28254 47.3095 5.27979 47.4899C5.30548 47.8473 5.46513 48.183 5.72816 48.4325C5.99119 48.6821 6.33912 48.828 6.70534 48.8424Z" fill="#FBF9FF"/>
<path d="M12.0276 48.8422H13.4109C13.7778 48.8422 14.1296 48.6997 14.3891 48.4461C14.6485 48.1924 14.7942 47.8484 14.7942 47.4897C14.7942 47.131 14.6485 46.787 14.3891 46.5333C14.1296 46.2797 13.7778 46.1372 13.4109 46.1372H12.0276C11.6624 46.1425 11.3137 46.2867 11.0555 46.5392C10.7972 46.7917 10.6497 47.1327 10.6443 47.4897C10.6689 47.8405 10.8226 48.1707 11.0769 48.4193C11.3311 48.6679 11.6689 48.8181 12.0276 48.8422Z" fill="#FBF9FF"/>
<path d="M18.7329 48.8422C19.0998 48.8422 19.4517 48.6997 19.7111 48.4461C19.9705 48.1924 20.1163 47.8484 20.1163 47.4897C20.1163 47.131 19.9705 46.787 19.7111 46.5333C19.4517 46.2797 19.0998 46.1372 18.7329 46.1372H17.3496C16.9827 46.1372 16.6309 46.2797 16.3715 46.5333C16.1121 46.787 15.9663 47.131 15.9663 47.4897C15.9663 47.8484 16.1121 48.1924 16.3715 48.4461C16.6309 48.6997 16.9827 48.8422 17.3496 48.8422H18.7329Z" fill="#FBF9FF"/>
<path d="M25.3434 47.5925C25.3352 47.2345 25.1854 46.8936 24.9255 46.6413C24.6655 46.3891 24.3157 46.2452 23.9495 46.24H22.5662C22.1993 46.24 21.8474 46.3825 21.588 46.6361C21.3286 46.8898 21.1829 47.2338 21.1829 47.5925C21.1829 47.9512 21.3286 48.2952 21.588 48.5489C21.8474 48.8025 22.1993 48.945 22.5662 48.945H23.9495C24.3036 48.9057 24.6337 48.7509 24.8867 48.5054C25.1396 48.26 25.3005 47.9384 25.3434 47.5925Z" fill="#FBF9FF"/>
<path d="M28.0042 48.8422H29.3875C29.7544 48.8422 30.1063 48.6997 30.3657 48.4461C30.6251 48.1924 30.7709 47.8484 30.7709 47.4897C30.7709 47.131 30.6251 46.787 30.3657 46.5333C30.1063 46.2797 29.7544 46.1372 29.3875 46.1372H28.0042C27.638 46.1425 27.2882 46.2863 27.0283 46.5386C26.7683 46.7908 26.6185 47.1317 26.6104 47.4897C26.6375 47.8414 26.7933 48.1717 27.0493 48.4201C27.3053 48.6685 27.6444 48.8184 28.0042 48.8422Z" fill="#FBF9FF"/>
<path d="M42.6927 46.24H41.3093C40.9425 46.24 40.5906 46.3825 40.3312 46.6361C40.0718 46.8898 39.926 47.2338 39.926 47.5925C39.926 47.9512 40.0718 48.2952 40.3312 48.5489C40.5906 48.8025 40.9425 48.945 41.3093 48.945H42.6927C43.0578 48.9397 43.4065 48.7955 43.6648 48.543C43.923 48.2905 44.0705 47.9495 44.076 47.5925C44.0354 47.2475 43.8766 46.9261 43.6254 46.6805C43.3743 46.4349 43.0455 46.2797 42.6927 46.24Z" fill="#FBF9FF"/>
<path d="M18.5216 20.1092C17.9697 19.8935 17.4012 19.7209 16.8215 19.5929V17.7139C17.08 17.7382 17.3311 17.8119 17.5606 17.9307C17.9782 18.0372 18.3745 18.2117 18.7328 18.4469C18.8384 18.5502 18.9545 18.5502 18.9545 18.6534L19.9049 16.7847C19.4825 16.5782 19.0601 16.3614 18.5216 16.1549C17.972 15.9569 17.4019 15.8184 16.8215 15.7419V14.3894H15.8394V15.7419C15.2272 15.7487 14.63 15.9288 14.1203 16.2605C13.6106 16.5921 13.21 17.0611 12.9672 17.6106C12.7782 17.9994 12.705 18.4324 12.756 18.8599C12.73 19.3329 12.8609 19.8014 13.1292 20.1958C13.3974 20.5901 13.7888 20.8893 14.2449 21.0487C14.9947 21.3584 15.7338 21.5752 16.0506 21.6785V23.444C15.7246 23.4248 15.4039 23.3551 15.1002 23.2375C14.5921 23.0897 14.1004 22.8926 13.6325 22.649C13.4107 22.5457 13.4107 22.4425 13.3051 22.4425L12.3547 24.3216C13.4234 24.9265 14.611 25.3031 15.8394 25.4263V26.9853H16.8004V25.4263C17.2336 25.4044 17.6626 25.3316 18.0781 25.2095C18.4576 25.0976 18.8148 24.923 19.134 24.6932C19.4367 24.4672 19.6883 24.1825 19.8732 23.857C20.1063 23.4437 20.2194 22.976 20.2006 22.5044C20.2143 22.1179 20.168 21.7315 20.0633 21.3584C19.7371 20.7602 19.1833 20.3115 18.5216 20.1092ZM16.1773 19.3865C15.9231 19.3022 15.6759 19.1986 15.4382 19.0767C15.227 18.9632 15.227 18.7567 15.227 18.5502C15.227 18.1372 15.5438 17.8275 16.1773 17.8275V19.3865ZM16.8215 23.5162V21.9882C17.0757 22.0725 17.3229 22.176 17.5606 22.298C17.6613 22.3456 17.7457 22.4206 17.8037 22.514C17.8618 22.6074 17.8911 22.7152 17.888 22.8245C17.888 23.2375 17.5607 23.444 16.8215 23.5472V23.5162Z" fill="#FBF9FF"/>
</svg>
