<svg width="60" height="60" viewBox="0 0 60 60" fill="none" xmlns="http://www.w3.org/2000/svg">
<path d="M29.9936 49.7056C26.9272 49.7056 24.2261 47.9811 22.7673 45.0933C22.5114 44.5875 22.6909 43.9585 23.167 43.6867C23.6431 43.4148 24.235 43.6055 24.4908 44.1114C25.6033 46.3147 27.6604 47.6294 29.9949 47.6294C29.9962 47.6294 29.9974 47.6294 29.9987 47.6294C32.3332 47.6281 34.3903 46.3107 35.5015 44.106C35.7561 43.6001 36.3493 43.4094 36.8241 43.6799C37.3001 43.9504 37.4796 44.5807 37.225 45.0852C35.7688 47.977 33.0677 49.7043 30 49.7056C29.9962 49.7056 29.9949 49.7056 29.9936 49.7056Z" fill="#FBF9FF"/>
<path d="M30.1311 42.6073H29.8676C27.5828 42.6073 25.5206 41.5036 23.9053 39.418C22.5637 37.6867 21.5784 35.3156 21.1278 32.743C20.7485 30.5722 20.7829 28.4108 21.2233 26.6551C21.7452 24.5789 22.7864 23.1682 24.2375 22.5744C24.5036 22.4662 24.8014 22.4852 25.0522 22.6299C28.2434 24.4586 31.7579 24.4586 34.9491 22.6312C35.1999 22.4879 35.4977 22.4676 35.7638 22.5758C37.2136 23.1696 38.2561 24.5803 38.7767 26.6565C39.2172 28.4121 39.2503 30.5749 38.8709 32.7444C38.4203 35.317 37.4338 37.688 36.0934 39.4193C34.4781 41.505 32.416 42.6073 30.1311 42.6073ZM29.8664 40.5298H30.1299C33.8531 40.5298 36.2386 36.4288 36.9488 32.3643C37.57 28.8098 36.9297 25.7097 35.4226 24.7074C31.9068 26.5469 28.0906 26.5469 24.5749 24.7061C23.0677 25.7083 22.4262 28.8084 23.0474 32.363C23.7602 36.4274 26.1431 40.5284 29.8664 40.5298Z" fill="#FBF9FF"/>
<path d="M49.1077 60H10.8923C10.3526 60 9.9147 59.5347 9.9147 58.9612V57.7791C9.9147 53.693 10.9699 50.6916 13.1415 48.6033C15.0089 46.807 17.402 45.986 19.5125 45.2611C23.0843 44.0343 24.9427 43.2471 24.8281 40.101C24.8078 39.5275 25.2278 39.0446 25.7676 39.023C26.306 39.0027 26.7617 39.4477 26.7821 40.0212C26.8623 42.2245 26.1749 43.8828 24.6818 45.092C23.4407 46.0969 21.8241 46.6515 20.1146 47.2399C16.0616 48.6317 11.8699 50.0721 11.8699 57.7818V57.9252H48.1314V57.7818C48.1314 50.0735 43.9396 48.633 39.8867 47.2412C38.1759 46.6529 36.5606 46.0983 35.3182 45.0933C33.8238 43.8841 33.1377 42.2259 33.2179 40.0226C33.2383 39.4491 33.6927 38.9973 34.2324 39.0244C34.7721 39.046 35.1922 39.5289 35.1718 40.1024C35.0573 43.2484 36.9157 44.0356 40.4875 45.2624C42.598 45.9874 44.9911 46.8098 46.8584 48.606C49.03 50.6943 50.0853 53.6957 50.0853 57.7804V58.9626C50.0853 59.5347 49.6474 60 49.1077 60Z" fill="#FBF9FF"/>
<path d="M38.1568 30.9373C37.8335 30.9373 37.5178 30.7682 37.332 30.4572C37.043 29.9756 37.1741 29.3359 37.626 29.0261C37.9048 28.83 40.238 27.0527 38.2854 23.6754C37.528 22.3647 36.4231 21.5545 35.0013 21.2678L34.8473 21.2367C33.6698 21 32.1029 20.6862 31.4079 19.381L30.5359 20.1966C29.6805 20.9959 28.4636 21.0933 27.5064 20.4373C26.749 19.9193 25.4672 19.2403 23.6545 18.9495C23.6533 18.9495 23.652 18.9495 23.6507 18.9495C23.6495 18.9508 23.6482 18.9508 23.6482 18.9522C23.6469 18.9535 23.6469 18.9535 23.6456 18.9535C23.6456 18.9549 23.6456 18.9563 23.6456 18.959C23.4802 20.9229 22.4898 22.266 21.693 23.3453C21.0884 24.1636 20.611 24.8115 20.597 25.4865C20.5805 26.2764 21.2258 27.33 22.5178 28.619C22.9112 29.0113 22.9315 29.6686 22.5611 30.0879C22.192 30.5058 21.5733 30.5275 21.1787 30.1339C19.417 28.3755 18.61 26.885 18.6405 25.4391C18.6698 24.073 19.4234 23.0518 20.1528 22.0645C20.8885 21.0676 21.5835 20.1262 21.6968 18.775C21.7464 18.1866 22.0023 17.6835 22.4389 17.3196C22.8755 16.9544 23.3961 16.8084 23.946 16.8976C26.1011 17.2425 27.6477 18.0649 28.5654 18.6925C28.7869 18.844 29.0466 18.8237 29.2452 18.6384L30.4697 17.4928C30.8834 17.1059 31.4244 16.972 31.9552 17.1262C32.4873 17.2804 32.8895 17.6862 33.0626 18.2421C33.2358 18.8007 34.3305 19.0198 35.2113 19.197L35.3679 19.2281C37.3244 19.6244 38.9091 20.7863 39.9516 22.5893C41.5033 25.2728 41.0833 27.3625 40.4583 28.642C39.7989 29.9932 38.7958 30.6993 38.6825 30.775C38.5196 30.8846 38.3376 30.9373 38.1568 30.9373Z" fill="#FBF9FF"/>
<path d="M29.9962 60C29.4565 60 29.0186 59.5347 29.0186 58.9612V48.6668C29.0186 48.0933 29.4565 47.6281 29.9962 47.6281C30.5359 47.6281 30.9738 48.0933 30.9738 48.6668V58.9612C30.9738 59.5347 30.5372 60 29.9962 60Z" fill="#FBF9FF"/>
<path d="M13.8875 24.403C13.5438 24.403 13.1899 24.3124 12.8806 24.0757C12.2709 23.6091 12.0329 22.7746 12.1741 21.5924C11.9768 18.3476 8.32358 14.6172 5.42389 13.8111C4.99364 13.692 4.69324 13.2782 4.69324 12.8061V1.1145C4.69324 0.542361 5.12857 0.0784293 5.66574 0.0757242L19.7518 0.00268555C21.1571 0.00268555 22.2963 1.24434 22.2963 2.77004C22.2963 3.35706 22.127 3.9035 21.8394 4.3512C22.0583 4.60007 22.2276 4.89358 22.3345 5.22225C22.4822 5.67672 22.6579 6.71955 21.7745 7.9044C22.1678 8.33587 22.5407 8.92965 22.6248 9.67221C22.6859 10.2119 22.6044 10.9788 21.9845 11.8106C22.3498 12.7764 22.3434 13.8124 21.9399 14.6077C21.5199 15.4342 20.7243 15.9076 19.7569 15.9076H16.1062C16.1278 16.1159 16.1889 16.4053 16.3251 16.7962C16.5861 17.2737 17.6171 19.339 17.1143 21.3665C16.8228 22.5446 16.096 23.4725 14.9567 24.1231C14.9491 24.1271 14.9415 24.1325 14.9325 24.1366C14.65 24.2881 14.2744 24.403 13.8875 24.403ZM6.64843 12.046C10.1298 13.408 13.9651 17.5942 14.1319 21.5883C14.1344 21.6533 14.1319 21.7182 14.123 21.7831C14.095 21.9941 14.0873 22.1497 14.0886 22.2606C14.7047 21.894 15.0751 21.4301 15.2228 20.8444C15.5117 19.6961 14.8816 18.2583 14.6143 17.8012C14.5825 17.747 14.5532 17.6862 14.5316 17.6267C14.002 16.1781 14.0173 15.0406 14.5749 14.2466C14.7594 13.9842 15.0497 13.83 15.3577 13.83H19.7556C20.112 13.83 20.1871 13.6826 20.219 13.6204C20.3577 13.3471 20.3221 12.7561 19.9809 12.2029C19.7162 11.7727 19.7862 11.2033 20.1464 10.8598C20.3628 10.6542 20.7205 10.2579 20.6823 9.91973C20.6339 9.48826 20.0433 9.02568 19.8345 8.90665C19.543 8.74029 19.3508 8.4292 19.3228 8.08023C19.2948 7.72992 19.4348 7.38907 19.6958 7.17266C20.3501 6.62893 20.5639 6.142 20.4863 5.89854C20.4277 5.71865 20.1591 5.53605 19.7569 5.53605C19.2172 5.53605 18.7793 5.07077 18.7793 4.49728C18.7793 3.92379 19.2172 3.4585 19.7569 3.4585C20.1069 3.4585 20.3412 3.10142 20.3412 2.76869C20.3412 2.39538 20.0738 2.07888 19.7569 2.07888L6.64843 2.14651V12.046Z" fill="#FBF9FF"/>
<path d="M5.67083 13.8449H0.977597C0.437882 13.8449 0 13.3796 0 12.8061V1.11452C0 0.541028 0.437882 0.0757446 0.977597 0.0757446H5.67083C6.21054 0.0757446 6.64842 0.541028 6.64842 1.11452C6.64842 1.68801 6.21054 2.15329 5.67083 2.15329H1.95519V11.7674H5.67083C6.21054 11.7674 6.64842 12.2326 6.64842 12.8061C6.64842 13.3796 6.21054 13.8449 5.67083 13.8449Z" fill="#FBF9FF"/>
<path d="M20.233 5.53739H19.1395C18.5998 5.53739 18.1619 5.0721 18.1619 4.49861C18.1619 3.92512 18.5998 3.45984 19.1395 3.45984H20.233C20.7727 3.45984 21.2106 3.92512 21.2106 4.49861C21.2106 5.0721 20.7727 5.53739 20.233 5.53739Z" fill="#FBF9FF"/>
<path d="M20.527 9.02976H19.1395C18.5998 9.02976 18.1619 8.56447 18.1619 7.99098C18.1619 7.41749 18.5998 6.95221 19.1395 6.95221H20.527C21.0667 6.95221 21.5046 7.41749 21.5046 7.99098C21.5046 8.56447 21.0667 9.02976 20.527 9.02976Z" fill="#FBF9FF"/>
<path d="M20.7994 12.6722H19.1395C18.5998 12.6722 18.1619 12.2069 18.1619 11.6334C18.1619 11.0599 18.5998 10.5947 19.1395 10.5947H20.7994C21.3391 10.5947 21.777 11.0599 21.777 11.6334C21.777 12.2069 21.3391 12.6722 20.7994 12.6722Z" fill="#FBF9FF"/>
<path d="M46.1125 24.4031C45.7256 24.4031 45.35 24.2881 45.0662 24.1353C45.0586 24.1312 45.0496 24.1271 45.042 24.1217C43.9015 23.4698 43.1759 22.5419 42.8844 21.3638C42.3816 19.3363 43.4127 17.271 43.6736 16.7935C43.8111 16.4026 43.8722 16.1132 43.8926 15.9049H40.2431C39.2757 15.9049 38.4801 15.4315 38.0601 14.605C37.6553 13.8097 37.6502 12.775 38.0155 11.8079C37.3969 10.9775 37.3142 10.2092 37.3753 9.66952C37.4593 8.92696 37.8335 8.33318 38.2256 7.90171C37.3422 6.71821 37.5178 5.67538 37.6655 5.21957C37.7724 4.89089 37.9417 4.59738 38.1606 4.34851C37.873 3.89946 37.7037 3.35437 37.7037 2.76736C37.7037 1.24166 38.8429 0 40.2431 0L54.3343 0.0730386C54.8727 0.0757438 55.3068 0.539675 55.3068 1.11181V12.8034C55.3068 13.2755 55.0064 13.6894 54.5761 13.8084C51.6751 14.6145 48.0232 18.3449 47.8246 21.5897C47.9659 22.7719 47.7278 23.6078 47.1181 24.073C46.8101 24.3124 46.4562 24.4031 46.1125 24.4031ZM40.2431 5.53742C39.8409 5.53742 39.5723 5.72002 39.5137 5.89991C39.4348 6.14202 39.6487 6.6303 40.3042 7.17403C40.5652 7.39044 40.7052 7.73129 40.6772 8.0816C40.6492 8.43192 40.457 8.74301 40.1655 8.90802C39.9211 9.0514 39.361 9.51127 39.3164 9.9238C39.2808 10.2606 39.6372 10.6555 39.8523 10.8611C40.2126 11.2033 40.2826 11.7741 40.0178 12.2042C39.6767 12.7574 39.641 13.3472 39.7798 13.6217C39.8116 13.6839 39.8867 13.8314 40.2431 13.8314H44.641C44.9491 13.8314 45.2393 13.9856 45.4239 14.248C45.9827 15.0419 45.9967 16.1794 45.4684 17.628C45.4455 17.6903 45.4175 17.7498 45.3844 17.8066C45.1197 18.261 44.4896 19.6988 44.7772 20.8472C44.9249 21.4328 45.2953 21.8968 45.9114 22.2633C45.9127 22.1524 45.9063 21.9968 45.877 21.7858C45.8681 21.7209 45.8656 21.656 45.8681 21.5911C46.0349 17.5969 49.8702 13.4094 53.3516 12.0487V2.14788L40.238 2.08025C39.9262 2.08025 39.6576 2.3954 39.6576 2.77006C39.6576 3.10279 39.8931 3.45987 40.2419 3.45987C40.7816 3.45987 41.2194 3.92516 41.2194 4.49865C41.2207 5.07214 40.7841 5.53742 40.2431 5.53742Z" fill="#FBF9FF"/>
<path d="M59.0224 13.8449H54.3292C53.7894 13.8449 53.3516 13.3796 53.3516 12.8061C53.3516 12.2326 53.7894 11.7674 54.3292 11.7674H58.0448V2.15329H54.3292C53.7894 2.15329 53.3516 1.68801 53.3516 1.11452C53.3516 0.541028 53.7894 0.0757446 54.3292 0.0757446H59.0224C59.5621 0.0757446 60 0.541028 60 1.11452V12.8061C60 13.3796 59.5621 13.8449 59.0224 13.8449Z" fill="#FBF9FF"/>
<path d="M40.8605 5.53745H39.7671C39.2273 5.53745 38.7895 5.07216 38.7895 4.49867C38.7895 3.92518 39.2273 3.4599 39.7671 3.4599H40.8605C41.4002 3.4599 41.8381 3.92518 41.8381 4.49867C41.8381 5.07216 41.4002 5.53745 40.8605 5.53745Z" fill="#FBF9FF"/>
<path d="M40.8605 9.02976H39.473C38.9333 9.02976 38.4954 8.56447 38.4954 7.99098C38.4954 7.41749 38.9333 6.95221 39.473 6.95221H40.8605C41.4002 6.95221 41.8381 7.41749 41.8381 7.99098C41.8381 8.56447 41.4002 9.02976 40.8605 9.02976Z" fill="#FBF9FF"/>
<path d="M40.8605 12.6722H39.2006C38.6609 12.6722 38.223 12.2069 38.223 11.6334C38.223 11.0599 38.6609 10.5947 39.2006 10.5947H40.8605C41.4002 10.5947 41.8381 11.0599 41.8381 11.6334C41.8381 12.2069 41.4002 12.6722 40.8605 12.6722Z" fill="#FBF9FF"/>
</svg>
