<svg width="60" height="60" viewBox="0 0 60 60" fill="none" xmlns="http://www.w3.org/2000/svg">
<path d="M56.058 17.5768H3.89224C2.85996 17.5768 1.86995 17.9907 1.14001 18.7273C0.410075 19.464 1.18803e-08 20.4631 1.18803e-08 21.5049V56.0715C-4.02441e-05 56.5915 0.102225 57.1063 0.300864 57.5862C0.499503 58.0659 0.790562 58.5012 1.15716 58.8666C1.52376 59.232 1.9586 59.5203 2.43645 59.7148C2.91431 59.9093 3.42568 60.0061 3.9409 59.9996H56.058C56.5733 60.0061 57.0846 59.9093 57.5625 59.7148C58.0403 59.5203 58.4752 59.232 58.8418 58.8666C59.2084 58.5012 59.4994 58.0659 59.6981 57.5862C59.8967 57.1063 59.999 56.5915 59.9989 56.0715V21.5049C60.0112 20.9815 59.9173 20.4611 59.723 19.9756C59.5286 19.4902 59.238 19.05 58.8689 18.6821C58.4998 18.3142 58.06 18.0264 57.5766 17.8363C57.0933 17.6463 56.5765 17.5579 56.058 17.5768ZM57.5371 56.0715C57.5247 56.4616 57.3643 56.832 57.089 57.1061C56.8138 57.3802 56.4447 57.5372 56.058 57.5445H3.89224C3.50559 57.5372 3.13651 57.3802 2.86126 57.1061C2.586 56.832 2.4256 56.4616 2.41319 56.0715V21.5049C2.4256 21.1148 2.586 20.7444 2.86126 20.4703C3.13651 20.1962 3.50559 20.0392 3.89224 20.0319H56.058C56.4447 20.0392 56.8138 20.1962 57.089 20.4703C57.3643 20.7444 57.5247 21.1148 57.5371 21.5049V56.0715Z" fill="#FBF9FF"/>
<path d="M6.14992 13.9445C6.48647 13.942 6.80883 13.8074 7.04863 13.569C7.28842 13.3307 7.42678 13.0075 7.43436 12.6679C7.43436 11.7841 7.92089 11.1949 8.40742 11.1949H51.6308C52.1173 11.1949 52.6038 11.7841 52.6038 12.6679C52.6318 12.9909 52.7787 13.2917 53.0156 13.5108C53.2524 13.7299 53.5621 13.8514 53.8834 13.8514C54.2047 13.8514 54.5144 13.7299 54.7513 13.5108C54.9882 13.2917 55.1351 12.9909 55.163 12.6679C55.2079 11.6734 54.8604 10.7015 54.1964 9.96515C53.5325 9.22884 52.6064 8.78822 51.6211 8.73987H8.41715C7.43184 8.78822 6.50572 9.22884 5.84179 9.96515C5.17785 10.7015 4.83026 11.6734 4.87521 12.6679C4.87116 12.8375 4.90143 13.0061 4.96418 13.1635C5.02693 13.3209 5.12084 13.4637 5.24016 13.5832C5.35948 13.7027 5.50171 13.7964 5.65814 13.8585C5.81456 13.9206 5.9819 13.9499 6.14992 13.9445Z" fill="#FBF9FF"/>
<path d="M8.61158 5.20476C8.94813 5.20229 9.27049 5.06761 9.51029 4.82928C9.75008 4.59095 9.88844 4.26772 9.89603 3.92815C9.89603 3.04434 10.3826 2.45514 10.6842 2.45514H49.2661C49.558 2.45514 50.0543 3.04434 50.0543 3.92815C50.0822 4.2512 50.2291 4.55194 50.466 4.77104C50.7029 4.99014 51.0125 5.11168 51.3338 5.11168C51.6551 5.11168 51.9648 4.99014 52.2017 4.77104C52.4386 4.55194 52.5855 4.2512 52.6134 3.92815C52.6134 1.66953 51.1343 0.00012207 49.3634 0.00012207H10.655C8.8062 0.00012207 7.43418 1.76774 7.43418 3.92815C7.41906 4.09211 7.43845 4.25745 7.49107 4.41332C7.5437 4.56919 7.62837 4.71207 7.73954 4.83261C7.85071 4.95315 7.98586 5.04861 8.13615 5.11274C8.28643 5.17688 8.44845 5.20824 8.61158 5.20476Z" fill="#FBF9FF"/>
<path d="M9.89615 48.8067H24.9494C25.2843 48.8017 25.6042 48.6659 25.8419 48.4278C26.0796 48.1898 26.2166 47.868 26.2241 47.5301V42.5219C26.2242 40.9138 25.7822 39.3373 24.9473 37.9676C24.1124 36.598 22.9173 35.489 21.495 34.764C22.179 34.1886 22.7283 33.4676 23.1034 32.6526C23.4786 31.8376 23.6704 30.949 23.665 30.0504C23.601 28.4072 22.9092 26.8529 21.7346 25.7132C20.56 24.5735 18.9938 23.9369 17.3644 23.9369C15.735 23.9369 14.1688 24.5735 12.9942 25.7132C11.8196 26.8529 11.1278 28.4072 11.0638 30.0504C11.0696 30.9471 11.2663 31.8321 11.6407 32.6454C12.0151 33.4587 12.5584 34.1812 13.2337 34.764C11.8237 35.5034 10.6396 36.616 9.80825 37.9826C8.9769 39.3492 8.52964 40.9183 8.5144 42.5219V47.5301C8.55973 47.8727 8.72297 48.1882 8.97556 48.4216C9.22816 48.655 9.55403 48.7913 9.89615 48.8067ZM13.6327 30.0504C13.6231 29.3006 13.8345 28.5649 14.2403 27.9367C14.646 27.3085 15.2277 26.8163 15.9113 26.5226C16.595 26.2289 17.3497 26.147 18.0796 26.2873C18.8095 26.4276 19.4815 26.7837 20.0103 27.3105C20.5391 27.8372 20.9008 28.5107 21.0493 29.2454C21.1979 29.9801 21.1266 30.7428 20.8445 31.4365C20.5625 32.1302 20.0824 32.7236 19.4653 33.1413C18.8482 33.5589 18.122 33.7819 17.379 33.782C16.89 33.7859 16.4051 33.6924 15.952 33.5068C15.499 33.3213 15.0866 33.0473 14.7386 32.7007C14.3906 32.354 14.1138 31.9415 13.924 31.4867C13.7342 31.0319 13.6352 30.5438 13.6327 30.0504ZM11.1709 42.5219C11.1709 40.829 11.8372 39.2054 13.0234 38.0084C14.2095 36.8113 15.8183 36.1388 17.4958 36.1388C19.1732 36.1388 20.782 36.8113 21.9681 38.0084C23.1543 39.2054 23.8207 40.829 23.8207 42.5219V46.2535H11.1709V42.5219Z" fill="#FBF9FF"/>
<path d="M51.3387 33.7825H31.2547C30.9192 33.7825 30.5975 33.917 30.3602 34.1564C30.123 34.3958 29.9897 34.7205 29.9897 35.0591C29.9897 35.3977 30.123 35.7224 30.3602 35.9618C30.5975 36.2012 30.9192 36.3357 31.2547 36.3357H51.3387C51.6736 36.3307 51.9935 36.1949 52.2312 35.9568C52.4689 35.7188 52.6059 35.397 52.6134 35.0591C52.5884 34.7272 52.4459 34.4155 52.2118 34.1811C51.9777 33.9466 51.6677 33.8051 51.3387 33.7825Z" fill="#FBF9FF"/>
<path d="M51.3387 41.3416H31.2547C30.9192 41.3416 30.5975 41.4761 30.3602 41.7155C30.123 41.9549 29.9897 42.2796 29.9897 42.6182C29.9897 42.9567 30.123 43.2815 30.3602 43.5209C30.5975 43.7603 30.9192 43.8948 31.2547 43.8948H51.3387C51.6742 43.8948 51.9959 43.7603 52.2332 43.5209C52.4704 43.2815 52.6037 42.9567 52.6037 42.6182C52.6037 42.2796 52.4704 41.9549 52.2332 41.7155C51.9959 41.4761 51.6742 41.3416 51.3387 41.3416Z" fill="#FBF9FF"/>
<path d="M51.3388 51.3606H8.61166C8.27617 51.3606 7.95441 51.4951 7.71718 51.7345C7.47995 51.9739 7.34668 52.2986 7.34668 52.6372C7.34668 52.9758 7.47995 53.3005 7.71718 53.5399C7.95441 53.7793 8.27617 53.9138 8.61166 53.9138H51.2317C51.5649 53.9063 51.8823 53.7694 52.118 53.5316C52.3536 53.2938 52.4893 52.9734 52.4967 52.6372C52.5116 52.4749 52.4928 52.3113 52.4413 52.1568C52.3898 52.0023 52.3069 51.8604 52.1979 51.7401C52.0888 51.6199 51.956 51.524 51.8081 51.4587C51.6601 51.3933 51.5003 51.3599 51.3388 51.3606Z" fill="#FBF9FF"/>
<path d="M34.894 26.318H32.4321V28.773H34.894V26.318Z" fill="#FBF9FF"/>
<path d="M42.4743 26.318H40.0125V28.773H42.4743V26.318Z" fill="#FBF9FF"/>
<path d="M49.957 26.318H47.4951V28.773H49.957V26.318Z" fill="#FBF9FF"/>
</svg>
