<svg width="60" height="60" viewBox="0 0 60 60" fill="none" xmlns="http://www.w3.org/2000/svg">
<path d="M58.6737 0H1.26691C0.929823 0.0126466 0.610454 0.154212 0.37471 0.395482C0.138965 0.636752 0.00483537 0.959314 0 1.2966L0 58.7034C0.00510963 59.0457 0.143356 59.3725 0.385417 59.6146C0.627478 59.8566 0.954314 59.9949 1.2966 60H58.7034C59.0457 59.9949 59.3725 59.8566 59.6146 59.6146C59.8566 59.3725 59.9949 59.0457 60 58.7034V1.2966C59.9607 0.961326 59.8076 0.649678 59.5662 0.413697C59.3248 0.177717 59.0098 0.0316893 58.6737 0ZM57.4068 2.49423V11.2735H2.49423V2.49423H57.4068ZM2.49423 57.4068V13.7677H57.4068V57.4068H2.49423Z" fill="#FBF9FF"/>
<path d="M36.2258 9.97778H40.0166C40.3589 9.97267 40.6858 9.83443 40.9278 9.59236C41.1699 9.3503 41.3081 9.02347 41.3132 8.68118V4.89035C41.3081 4.54806 41.1699 4.22123 40.9278 3.97917C40.6858 3.73711 40.3589 3.59886 40.0166 3.59375H36.2258C35.8835 3.59886 35.5567 3.73711 35.3146 3.97917C35.0726 4.22123 34.9343 4.54806 34.9292 4.89035V8.68118C34.9343 9.02347 35.0726 9.3503 35.3146 9.59236C35.5567 9.83443 35.8835 9.97267 36.2258 9.97778ZM37.4234 6.28593H38.72V7.48356H37.4234V6.28593Z" fill="#FBF9FF"/>
<path d="M43.7083 9.97778H47.4002C47.7425 9.97267 48.0693 9.83443 48.3114 9.59236C48.5534 9.3503 48.6917 9.02347 48.6968 8.68118V4.89035C48.6917 4.54806 48.5534 4.22123 48.3114 3.97917C48.0693 3.73711 47.7425 3.59886 47.4002 3.59375H43.6093C43.2671 3.59886 42.9402 3.73711 42.6982 3.97917C42.4561 4.22123 42.3179 4.54806 42.3127 4.89035V8.68118C42.3564 9.02665 42.5201 9.3458 42.7752 9.58281C43.0303 9.81983 43.3606 9.95963 43.7083 9.97778ZM44.9059 6.28593H46.2025V7.48356H44.9059V6.28593Z" fill="#FBF9FF"/>
<path d="M51.1909 9.97778H54.9817C55.324 9.97267 55.6508 9.83443 55.8929 9.59236C56.135 9.3503 56.2732 9.02347 56.2783 8.68118V4.89035C56.2732 4.54806 56.135 4.22123 55.8929 3.97917C55.6508 3.73711 55.324 3.59886 54.9817 3.59375H51.1909C50.8486 3.59886 50.5218 3.73711 50.2797 3.97917C50.0376 4.22123 49.8994 4.54806 49.8943 4.89035V8.68118C49.8994 9.02347 50.0376 9.3503 50.2797 9.59236C50.5218 9.83443 50.8486 9.97267 51.1909 9.97778ZM52.3885 6.28593H53.6851V7.48356H52.3885V6.28593Z" fill="#FBF9FF"/>
<path d="M41.907 25.249C40.8652 25.5127 39.7946 25.6457 38.7199 25.6449C37.3817 25.7336 36.0466 25.4319 34.8764 24.7766C33.7063 24.1212 32.7516 23.1404 32.128 21.9531C31.7573 21.2305 31.2089 20.614 30.5345 20.1616C30.2782 20.0089 29.975 19.9549 29.6817 20.0095C29.3884 20.0642 29.1251 20.2238 28.9409 20.4585L27.8423 21.7749C26.9173 22.9547 25.7364 23.9089 24.3888 24.5656C23.0411 25.2223 21.5618 25.5643 20.0627 25.5657C19.3197 25.5744 18.5794 25.4744 17.8654 25.2688C17.6795 25.2214 17.4853 25.2162 17.2971 25.2536C17.1089 25.291 16.9315 25.37 16.7777 25.4848C16.624 25.5996 16.4979 25.7473 16.4087 25.9172C16.3194 26.087 16.2693 26.2747 16.262 26.4664V40.1154C16.262 49.0233 29.0399 52.2896 29.5348 52.3886H30.1386C30.6335 52.2896 43.4114 48.9936 43.4114 40.1154V26.4466C43.4441 26.2531 43.4243 26.0543 43.3541 25.8709C43.284 25.6876 43.1659 25.5264 43.0124 25.4042C42.8588 25.2819 42.6752 25.203 42.4808 25.1758C42.2864 25.1485 42.0883 25.1738 41.907 25.249ZM19.6569 43.3123H28.644V44.7079H20.6566C20.3596 44.2031 19.9538 43.8072 19.6569 43.3123ZM18.8651 39.4126H28.7034V40.8181H18.8057C18.7707 40.3489 18.7907 39.8772 18.8651 39.4126ZM18.8651 36.9184V35.4239H28.7034V36.8194H18.8057L18.8651 36.9184ZM28.7628 32.9593H18.8651V31.5341H28.7034L28.7628 32.9593ZM28.7628 47.2318V49.4885C27.0414 48.9356 25.3981 48.1639 23.8733 47.1923L28.7628 47.2318ZM28.7034 24.5463V29.1388H18.8057V27.9412C20.6012 28.1002 22.4102 27.8801 24.1152 27.2953C25.8203 26.7104 27.3835 25.7739 28.7034 24.5463ZM40.9766 40.1154C40.9766 45.4997 34.1867 48.3998 31.0789 49.4984V25.051C33.4741 27.8422 37.2649 28.6439 40.9766 28.0204V40.0956V40.1154Z" fill="#FBF9FF"/>
</svg>
