<svg width="62" height="62" viewBox="0 0 62 62" fill="none" xmlns="http://www.w3.org/2000/svg">
<path d="M31.9922 6.54593C31.9922 6.20631 31.6612 5.8667 31.3303 5.8667C24.9321 5.8667 18.9772 9.14972 15.5569 14.6969C15.3374 15.0365 15.4466 15.4893 15.7775 15.7158C16.1083 15.9422 16.5496 15.829 16.7701 15.4893C19.9676 10.395 25.3733 7.3384 31.3293 7.3384C31.7715 7.33953 31.9922 6.99876 31.9922 6.54593Z" fill="#F5F5F5" stroke="#F5F5F5"/>
<path d="M17.5221 57.1416C17.5233 56.5788 17.0799 56.1217 16.5317 56.1204C15.9834 56.1191 15.538 56.5742 15.5367 57.1369C15.5354 57.6996 15.9789 58.1568 16.5271 58.1581C17.0754 58.1594 17.5208 57.7043 17.5221 57.1416Z" fill="#F5F5F5" stroke="#F5F5F5"/>
<path d="M45.4492 1C45.9974 1 46.4408 1.45622 46.4408 2.01886C46.4408 2.5815 45.9974 3.03772 45.4492 3.03772C44.9011 3.03772 44.4565 2.5815 44.4565 2.01886C44.4565 1.45622 44.9011 1 45.4492 1Z" fill="#F5F5F5" stroke="#F5F5F5"/>
<path d="M52.7279 58.9624C53.276 58.9624 53.7205 59.4187 53.7205 59.9813C53.7205 60.5439 53.276 61.0002 52.7279 61.0002C52.1797 61.0002 51.7363 60.5439 51.7363 59.9813C51.7363 59.4187 52.1797 58.9624 52.7279 58.9624Z" fill="#F5F5F5" stroke="#F5F5F5"/>
<path d="M12.0284 3.37739C12.0297 2.81469 11.5862 2.35752 11.038 2.35622C10.4898 2.35493 10.0443 2.81 10.0431 3.37271C10.0418 3.93541 10.4852 4.39265 11.0334 4.39394C11.5817 4.39524 12.0271 3.9401 12.0284 3.37739Z" fill="#F5F5F5" stroke="#F5F5F5"/>
<path d="M3.42539 19.3398C3.97466 19.3398 4.41808 19.7961 4.41808 20.3587C4.41808 20.9213 3.97466 21.3776 3.42539 21.3776C2.87721 21.3776 2.43384 20.9213 2.43384 20.3587C2.43384 19.7961 2.87721 19.3398 3.42539 19.3398Z" fill="#F5F5F5" stroke="#F5F5F5"/>
<path d="M9.60304 38.4717C10.1512 38.4717 10.5946 38.9279 10.5946 39.4906C10.5946 40.0532 10.1512 40.5094 9.60304 40.5094C9.05487 40.5094 8.61035 40.0532 8.61035 39.4906C8.61035 38.9279 9.05487 38.4717 9.60304 38.4717Z" fill="#F5F5F5" stroke="#F5F5F5"/>
<path d="M5.19124 45.4893C2.87392 45.4893 1 47.4138 1 49.7911C1 52.1685 2.87392 54.093 5.19124 54.093C7.50746 54.093 9.38248 52.1685 9.38248 49.7911C9.38248 47.4138 7.39716 45.4893 5.19124 45.4893ZM5.19124 52.6225C3.64709 52.6225 2.43384 51.3772 2.43384 49.7923C2.43384 48.2074 3.64709 46.9621 5.19124 46.9621C6.73428 46.9621 7.94865 48.2074 7.94865 49.7923C7.94865 51.3772 6.62399 52.6225 5.19124 52.6225Z" fill="#F5F5F5" stroke="#F5F5F5"/>
<path d="M56.8087 44.1318C54.4925 44.1318 52.6174 46.0564 52.6174 48.4337C52.6174 50.8111 54.4925 52.7356 56.8087 52.7356C59.125 52.7356 61 50.8111 61 48.4337C61 46.0552 59.125 44.1318 56.8087 44.1318ZM56.8087 51.1496C55.2646 51.1496 54.0513 49.9043 54.0513 48.3194C54.0513 46.7345 55.2646 45.4892 56.8087 45.4892C58.3529 45.4892 59.5661 46.7345 59.5661 48.3194C59.5661 49.9054 58.354 51.1496 56.8087 51.1496Z" fill="#F5F5F5" stroke="#F5F5F5"/>
<path d="M27.2505 35.6413V30.6602C27.2505 30.3206 26.9196 29.981 26.5876 29.981H23.1684C22.8375 29.981 22.5066 30.3206 22.5066 30.6602V35.6413C22.5066 35.981 22.8375 36.3206 23.1684 36.3206H26.5876C26.9196 36.3206 27.2505 35.9798 27.2505 35.6413ZM25.8166 34.8477H23.721V31.3383H25.8166V34.8477Z" fill="#F5F5F5"/>
<path d="M31.3314 29.981H29.2357C28.9048 29.981 28.574 30.3206 28.574 30.6602C28.574 30.9998 28.9048 31.3394 29.2357 31.3394H30.6696V35.6413C30.6696 35.981 31.0005 36.3206 31.3325 36.3206C31.6633 36.3206 31.9942 35.981 31.9942 35.6413V30.6602C31.992 30.2062 31.7715 29.981 31.3314 29.981Z" fill="#F5F5F5"/>
<path d="M34.7495 36.3206H38.1686C38.5006 36.3206 38.8315 35.981 38.8315 35.6413V30.6602C38.8315 30.3206 38.5006 29.981 38.1686 29.981H34.7495C34.4186 29.981 34.0876 30.3206 34.0876 30.6602V35.6413C34.0887 35.9798 34.4197 36.3206 34.7495 36.3206ZM35.5226 31.3383H37.6171V34.8477H35.5226V31.3383Z" fill="#F5F5F5"/>
<path d="M41.0376 31.3385H42.4714V35.6404C42.4714 35.98 42.8023 36.3196 43.1332 36.3196C43.4652 36.3196 43.7961 35.98 43.7961 35.6404V30.6592C43.7961 30.3196 43.4652 29.98 43.1332 29.98H41.0387C40.7078 29.98 40.3758 30.3196 40.3758 30.6592C40.2644 31 40.5953 31.3385 41.0376 31.3385Z" fill="#F5F5F5"/>
<path d="M28.574 21.4906V26.4717C28.574 26.8113 28.9048 27.151 29.2357 27.151H32.6549C32.9869 27.151 33.3178 26.8113 33.3178 26.4717V21.4906C33.3178 21.151 32.9869 20.8113 32.6549 20.8113H29.2357C28.9048 20.697 28.574 21.0377 28.574 21.4906ZM30.0078 22.1698H32.1023V25.6793H30.0078V22.1698Z" fill="#F5F5F5"/>
<path d="M37.5069 27.1511C37.8378 27.1511 38.1687 26.8115 38.1687 26.4719V21.4908C38.1687 21.1511 37.8378 20.8115 37.5069 20.8115H35.4113C35.0804 20.8115 34.7495 21.1511 34.7495 21.4908C34.7495 21.8304 35.0804 22.17 35.4113 22.17H36.8462V26.4719C36.8462 26.8104 37.1771 27.1511 37.5069 27.1511Z" fill="#F5F5F5"/>
<path d="M26.4774 20.6968H24.3817C24.0508 20.6968 23.72 21.0364 23.72 21.376C23.72 21.7157 24.0508 22.0553 24.3817 22.0553H25.8167V26.3572C25.8167 26.6968 26.1476 27.0364 26.4785 27.0364C26.8093 27.0364 27.1402 26.6968 27.1402 26.3572V21.376C27.2505 21.0375 26.9197 20.6968 26.4774 20.6968Z" fill="#F5F5F5"/>
<path d="M34.7495 17.867H38.1686C38.5006 17.867 38.8315 17.5273 38.8315 17.1877V12.2066C38.8315 11.867 38.5006 11.5273 38.1686 11.5273H34.7495C34.4186 11.5273 34.0876 11.867 34.0876 12.2066V17.1877C34.0887 17.6417 34.4197 17.867 34.7495 17.867ZM35.5226 13.0002H37.6171V16.5096H35.5226V13.0002Z" fill="#F5F5F5"/>
<path d="M41.0376 13.0001H42.4714V17.302C42.4714 17.6416 42.8023 17.9812 43.1332 17.9812C43.4652 17.9812 43.7961 17.6416 43.7961 17.302V12.3209C43.7961 11.9812 43.4652 11.6416 43.1332 11.6416H41.0387C40.7078 11.6416 40.3758 11.9812 40.3758 12.3209C40.2644 12.6593 40.5953 13.0001 41.0376 13.0001Z" fill="#F5F5F5"/>
<path d="M46.5524 17.867H49.9716C50.3025 17.867 50.6345 17.5273 50.6345 17.1877V12.2066C50.6345 11.867 50.3025 11.5273 49.9716 11.5273H46.5524C46.2215 11.5273 45.8895 11.867 45.8895 12.2066V17.1877C45.7792 17.6417 46.1101 17.867 46.5524 17.867ZM47.2131 13.0002H49.3087V16.5096H47.2131V13.0002Z" fill="#F5F5F5"/>
<path d="M52.7278 13.0001H54.1616V17.302C54.1616 17.6416 54.4937 17.9812 54.8245 17.9812C55.1554 17.9812 55.4863 17.6416 55.4863 17.302V12.3209C55.4863 11.9812 55.1554 11.6416 54.8245 11.6416H52.7289C52.398 11.6416 52.0671 11.9812 52.0671 12.3209C52.0671 12.6593 52.2877 13.0001 52.7278 13.0001Z" fill="#F5F5F5"/>
<path d="M41.0375 27.1511H44.4567C44.7876 27.1511 45.1196 26.8115 45.1196 26.4719V21.4908C45.1196 21.1511 44.7876 20.8115 44.4567 20.8115H41.0375C40.7067 20.8115 40.3746 21.1511 40.3746 21.4908V26.4719C40.2643 26.8104 40.5953 27.1511 41.0375 27.1511ZM41.6982 22.17H43.7938V25.6794H41.6982V22.17Z" fill="#F5F5F5"/>
<path d="M49.3097 27.1511C49.6405 27.1511 49.9714 26.8115 49.9714 26.4719V21.4908C49.9714 21.1511 49.6405 20.8115 49.3097 20.8115H47.214C46.8831 20.8115 46.5522 21.1511 46.5522 21.4908C46.5522 21.8304 46.8831 22.17 47.214 22.17H48.6478V26.4719C48.5364 26.8104 48.8674 27.1511 49.3097 27.1511Z" fill="#F5F5F5"/>
<path d="M46.5524 36.3206H49.9716C50.3025 36.3206 50.6345 35.981 50.6345 35.6413V30.6602C50.6345 30.3206 50.3025 29.981 49.9716 29.981H46.5524C46.2215 29.981 45.8895 30.3206 45.8895 30.6602V35.6413C45.7792 35.9798 46.1101 36.3206 46.5524 36.3206ZM47.2131 31.3383H49.3087V34.8477H47.2131V31.3383Z" fill="#F5F5F5"/>
<path d="M52.7278 31.3385H54.1616V35.6404C54.1616 35.98 54.4937 36.3196 54.8245 36.3196C55.1554 36.3196 55.4863 35.98 55.4863 35.6404V30.6592C55.4863 30.3196 55.1554 29.98 54.8245 29.98H52.7289C52.398 29.98 52.0671 30.3196 52.0671 30.6592C52.0671 31 52.2877 31.3385 52.7278 31.3385Z" fill="#F5F5F5"/>
<path d="M58.2427 41.3018C58.5735 41.3018 58.9056 40.9622 58.9056 40.6226V8.01878C58.9056 7.67915 58.5735 7.33952 58.2427 7.33952H43.3527C40.0438 4.16971 35.5216 2.3584 30.6686 2.3584H29.2348C18.9772 2.3584 10.705 10.7358 10.5947 21.3773L7.83729 32.5848C7.727 33.0376 8.0579 33.4905 8.50019 33.4905H14.6767V46.9622C14.6767 47.3018 15.0076 47.6414 15.3396 47.6414H22.949C22.949 60.6603 22.949 59.7546 22.949 59.8678C22.949 59.8678 22.949 59.9811 23.0604 59.9811C23.0604 59.9811 23.0603 60.0942 23.1706 60.0942C23.2809 60.2074 23.281 60.2075 23.3912 60.2075C23.5015 60.2075 23.6118 60.3207 23.7221 60.3207H48.5388C48.8696 60.3207 49.2006 59.981 49.2006 59.6414V41.3018H58.2427ZM16.2209 46.1686V32.8101C16.2209 32.4705 15.89 32.1308 15.558 32.1308H9.60315C12.2492 21.0365 12.1399 21.7158 12.1399 21.4893C12.1399 11.7535 19.8607 3.82896 29.3461 3.82896H30.7811C35.4124 3.82896 39.6048 5.52707 42.6931 8.58367C42.8034 8.58367 42.8034 8.58368 42.8034 8.69689C42.9148 8.69689 42.9148 8.69689 42.9148 8.69689C43.0251 8.69689 42.9148 8.69689 43.0251 8.69689C43.1354 8.69689 54.6062 8.69689 57.5842 8.69689V39.829H48.6469C48.316 39.829 47.9851 40.1686 47.9851 40.5082V49.2252L24.492 58.6214V55.9044L40.0438 49.678C40.3747 49.5648 40.5952 49.112 40.4849 48.7724C40.3735 48.4327 39.9335 48.2063 39.6026 48.3195L24.6012 54.3195V46.8478C24.6012 46.5082 24.2703 46.1686 23.9394 46.1686H16.2209ZM27.4711 58.9622L47.8759 50.8112V58.9622H27.4711Z" fill="#F5F5F5" stroke="#F5F5F5"/>
</svg>
