<svg width="596" height="265" viewBox="0 0 596 265" fill="none" xmlns="http://www.w3.org/2000/svg">
<path d="M109.073 13.2376C134.412 -2.95977 450.657 -1.64283 479.132 3.32106C506.941 8.17238 533.995 19.8448 554.798 39.1713C574.789 57.7437 589.083 92.1419 592.219 119.404C595.31 146.272 586.183 173.77 567.738 193.592C562.526 199.197 556.58 204.15 550.06 208.18C546.551 210.341 542.884 212.232 539.083 213.808C537.255 214.562 535.393 215.327 533.498 215.89C530.396 216.802 528.297 216.048 529.008 219.953C532.212 237.423 542.986 252.731 558.047 262.073C559.22 262.805 558.634 264.369 557.381 264.505C541.655 266.193 525.815 263.559 511.533 256.715C505.215 253.688 499.281 249.849 493.945 245.313C487.086 239.482 481.422 232.481 472.668 229.363C465.684 226.876 177.237 226.381 169.949 225.334C160.89 224.028 151.876 222.373 142.952 220.37C126.007 216.565 109.434 211.444 93.2002 205.309C68.0422 195.809 41.6432 184.204 24.1906 162.953C6.46722 141.375 4.36884 103.274 14.4997 77.8018C37.6721 19.5071 104.719 4.87438 161.183 5.53848C191.609 5.89867 503.839 9.37676 531.569 22.6813C558.284 35.5131 579.538 57.1021 588.372 85.6585C593.697 102.846 595.851 131.099 595.998 149.052C596.122 164.709 589.985 177.485 577.981 187.502C571.449 192.95 564.037 197.261 556.648 201.415C548.909 205.76 539.782 209.632 533.216 215.71C524.101 224.141 535.157 235.295 541.136 242.105C547.059 248.836 553.354 255.049 560.382 260.644C561.319 261.387 560.495 262.861 559.457 262.872C541.869 263.12 524.213 260.036 507.979 253.192C492.241 246.562 479.053 235.318 463.564 228.227C446.562 220.437 146.517 218.321 128.455 214.078C111.025 209.992 93.6852 205.163 77.2028 198.094C49.3937 186.163 22.7692 166.983 9.05078 139.327C-3.93439 113.146 -3.95697 69.7538 15.6166 46.6565C35.7429 22.8952 71.4831 17.2222 100.488 12.2245C102.135 11.9431 102.846 14.4532 101.188 14.7459C75.5106 19.1695 45.5805 23.9195 24.9578 41.0961C0.194641 61.7283 -2.67084 107.495 10.1112 135.5C22.7805 163.28 48.7732 182.64 76.0746 194.785C91.7448 201.752 108.306 206.536 124.947 210.566C141.361 214.539 439.286 216.79 455.305 222.205C471.743 227.754 485.213 238.469 500.33 246.607C518.358 256.321 539.071 260.554 559.468 260.272C559.164 261.015 558.848 261.758 558.543 262.501C547.781 253.935 536.341 243.152 529.516 231.052C523.345 220.1 530.091 213.954 539.398 208.258C552.564 200.222 567.275 193.986 578.715 183.428C591.519 171.609 594.204 157.415 592.997 140.61C590.707 108.823 584.987 68.8983 561.003 45.9362C538.383 24.2797 507.742 14.1155 477.169 10.3335C420.445 3.32106 72.7663 -18.5723 28.5679 57.8225C11.8035 80.7959 4.65088 121.632 17.5909 148.05C30.1022 173.59 57.5729 188.122 82.7985 198.454C98.5815 204.927 114.737 210.51 131.242 214.854C148.931 219.503 447.758 221.439 465.651 224.872C472.984 226.279 479.437 228.947 485.202 233.753C491.756 239.212 497.374 245.381 504.685 249.962C520.423 259.833 539.004 263.908 557.438 261.927C557.212 262.737 556.998 263.548 556.772 264.358C545.84 257.582 537.074 247.936 531.592 236.297C529.121 231.063 526.819 225.041 526.199 219.256C525.736 215.001 527.564 214.877 531.298 213.796C560.54 205.354 581.84 178.07 588.225 149.097C594.532 120.451 585.529 81.5838 568.403 58.3065C550.759 34.3313 524.789 18.1564 496.359 9.97333C479.279 5.05448 180.486 2.88207 162.717 3.09594C144.622 3.3098 125.996 5.58351 110.45 15.5225C109.028 16.4343 107.708 14.1718 109.13 13.2713L109.073 13.2376Z" fill="#FFA800"/>
</svg>
