<svg width="64" height="43" viewBox="0 0 64 43" fill="none" xmlns="http://www.w3.org/2000/svg">
<path d="M25.3417 7.59642C28.9398 16.2316 41.0936 27.717 53.0053 32.1873C61.5647 35.3995 62.6125 29.9178 61.7547 26.208C60.5504 20.9995 53.5416 9.78706 43.0335 9.65969C29.4268 9.49477 17.2629 33.826 24.055 40.1877C28.5215 44.3712 37.8639 37.2857 38.7231 36.4823C47.4943 28.281 53.4772 13.6556 41.2322 5.32261C26.7021 -4.56542 -3.35026 6.34833 2.82479 19.6392C9.0344 33.0045 47.1036 26.4062 42.8405 13.3231C41.7727 10.0461 36.404 8.56635 32.1611 10.544C24.4041 14.1594 20.1132 23.511 21.546 29.4503C22.5816 33.7432 26.8069 30.0217 28.108 28.8187C33.3155 24.0036 33.2969 19.0006 35.7638 13.6599" stroke="#522E92" stroke-width="3" stroke-linecap="round"/>
</svg>
