<svg width="600" height="256" viewBox="0 0 600 256" fill="none" xmlns="http://www.w3.org/2000/svg">
<path d="M100.865 205.078C124.304 223.92 438.839 256.798 467.683 254.941C495.854 253.125 524.01 244.445 546.781 227.481C568.663 211.179 586.591 178.527 592.656 151.764C598.634 125.388 592.533 97.0639 576.339 75.3643C571.763 69.2282 566.388 63.6619 560.341 58.951C557.087 56.4232 553.646 54.1469 550.037 52.1693C548.301 51.222 546.534 50.2599 544.71 49.4955C541.725 48.2537 539.557 48.7766 540.686 44.9705C545.759 27.95 558.125 13.8963 574.108 6.23671C575.353 5.63621 574.939 4.01735 573.709 3.7477C558.257 0.369099 542.226 1.27527 527.287 6.53479C520.679 8.86192 514.365 12.0362 508.57 15.9689C501.12 21.0238 494.733 27.3718 485.693 29.525C478.482 31.2431 191.671 0.552965 184.312 0.805775C175.165 1.12449 166.025 1.79497 156.937 2.8221C139.68 4.77249 122.651 8.07237 105.849 12.4159C79.8113 19.1406 52.3125 27.8237 32.6648 47.0637C12.7127 66.5989 6.50764 104.25 13.8255 130.668C30.5602 191.126 95.6319 212.921 151.837 218.365C182.124 221.296 492.9 251.592 521.906 241.363C549.851 231.495 573.315 212.33 585.184 184.896C592.336 168.384 597.532 140.53 599.619 122.698C601.435 107.146 596.714 93.7822 585.864 82.5255C579.959 76.4034 573.057 71.3163 566.16 66.3884C558.935 61.2324 550.281 56.3964 544.41 49.644C536.26 40.2773 548.457 30.3832 555.137 24.2596C561.753 18.2083 568.683 12.7119 576.275 7.91029C577.286 7.27298 576.627 5.71808 575.596 5.59468C558.138 3.44717 540.252 4.60454 523.373 9.65308C507.011 14.5427 492.685 24.2958 476.519 29.671C458.775 35.5766 160.26 5.24407 141.845 7.51014C124.075 9.68784 106.315 12.6138 89.1653 17.8593C60.2293 26.7145 31.6873 42.904 15.0596 68.9148C-0.679775 93.539 -5.39306 136.674 11.5689 161.752C29.0085 187.55 63.926 197.053 92.2207 205.157C93.8277 205.615 94.8056 203.196 93.1886 202.726C68.1404 195.553 38.8992 187.595 20.2542 168.29C-2.13337 145.101 -0.0344731 99.293 15.7001 72.834C31.2982 46.5867 59.2316 30.1498 87.686 21.0272C104.018 15.7946 120.999 12.8292 137.977 10.6221C154.725 8.44655 451.147 38.4155 467.658 34.7649C484.599 31.0252 499.149 21.8285 515.057 15.3724C534.03 7.66429 555.079 5.69602 575.326 8.18079C575.104 7.40932 574.87 6.63661 574.647 5.86514C563.022 13.2173 550.484 22.7006 542.39 33.992C535.071 44.2128 541.114 51.0518 549.751 57.7201C561.971 67.133 575.921 74.9227 586.153 86.6555C597.605 99.7893 598.739 114.19 595.723 130.766C590.01 162.119 580.007 201.192 553.681 221.427C528.853 240.511 497.293 247.303 466.49 247.758C409.34 248.597 61.3321 232.777 25.6513 152.051C11.4687 127.4 8.77266 86.0298 24.4927 61.1658C39.6916 37.1282 68.5723 25.6516 94.7671 18.1062C111.157 13.3781 127.821 9.57434 144.699 7.03926C162.788 4.3301 460.073 34.7099 478.231 33.2312C485.674 32.6252 492.377 30.6708 498.628 26.5159C505.734 21.7973 511.986 16.2725 519.749 12.5085C536.462 4.39618 555.374 2.35408 573.486 6.31633C573.35 5.48626 573.224 4.65741 573.087 3.82731C561.487 9.38191 551.73 18.0242 545.021 29.0019C541.999 33.9382 539.06 39.676 537.818 45.3606C536.898 49.5404 538.701 49.8611 542.297 51.339C570.455 62.8927 588.68 92.3198 591.896 121.813C595.069 150.973 581.917 188.639 562.375 209.929C542.243 231.856 514.676 245.129 485.528 250.19C468.016 253.234 170.74 223.093 153.098 220.959C135.132 218.791 116.861 214.517 102.48 202.955C101.166 201.895 99.6091 204.002 100.925 205.051L100.865 205.078Z" fill="#FFA800"/>
</svg>
