<svg width="596" height="345" viewBox="0 0 596 345" fill="none" xmlns="http://www.w3.org/2000/svg">
<path d="M109.073 13.2375C134.412 -2.95985 450.657 -1.64285 479.132 3.32104C506.941 8.17236 533.995 19.8448 554.798 39.1713C574.789 57.7437 589.083 172.142 592.219 199.404C595.31 226.272 586.183 253.77 567.738 273.592C562.526 279.197 556.58 284.15 550.06 288.18C546.551 290.341 542.884 292.232 539.083 293.808C537.255 294.562 535.393 295.327 533.498 295.89C530.396 296.802 528.297 296.048 529.008 299.953C532.212 317.423 542.986 332.731 558.047 342.073C559.22 342.805 558.634 344.369 557.381 344.505C541.655 346.193 525.815 343.559 511.533 336.715C505.215 333.687 499.281 329.849 493.945 325.313C487.086 319.482 481.422 312.481 472.668 309.363C465.684 306.876 177.237 306.38 169.949 305.334C160.89 304.028 151.876 302.373 142.952 300.37C126.007 296.565 109.434 291.444 93.2001 285.309C68.0422 275.809 41.6432 264.204 24.1906 242.953C6.46719 221.375 4.36882 103.274 14.4997 77.8017C37.6721 19.507 104.719 4.87429 161.183 5.5384C191.609 5.8986 503.839 9.37674 531.569 22.6813C558.284 35.5131 579.538 57.1021 588.372 85.6585C593.697 102.846 595.852 211.099 595.998 229.052C596.122 244.709 589.985 257.485 577.981 267.502C571.449 272.95 564.037 277.261 556.648 281.415C548.909 285.76 539.782 289.632 533.216 295.71C524.101 304.141 535.157 315.295 541.136 322.105C547.059 328.836 553.354 335.049 560.382 340.644C561.319 341.387 560.495 342.861 559.457 342.872C541.869 343.12 524.213 340.036 507.979 333.192C492.241 326.562 479.053 315.318 463.564 308.226C446.562 300.437 146.517 298.321 128.455 294.078C111.025 289.992 93.6852 285.163 77.2028 278.094C49.3936 266.163 22.7692 246.983 9.05074 219.327C-3.93436 193.145 -3.95698 69.7537 15.6166 46.6564C35.7429 22.8951 71.4831 17.2221 100.488 12.2244C102.135 11.943 102.846 14.4531 101.187 14.7458C75.5106 19.1694 45.5805 23.9194 24.9578 41.096C0.19463 61.7282 -2.67087 187.495 10.1112 215.5C22.7804 243.28 48.7731 262.64 76.0746 274.785C91.7447 281.752 108.306 286.536 124.946 290.566C141.361 294.539 439.286 296.79 455.305 302.205C471.743 307.754 485.213 318.469 500.33 326.607C518.358 336.321 539.071 340.554 559.468 340.272C559.164 341.015 558.848 341.758 558.543 342.501C547.781 333.935 536.341 323.152 529.516 311.052C523.345 300.1 530.091 293.954 539.398 288.258C552.564 280.222 567.275 273.986 578.715 263.428C591.519 251.609 594.204 237.415 592.997 220.61C590.707 188.823 584.987 68.8983 561.003 45.9362C538.383 24.2797 507.742 14.1155 477.169 10.3335C420.445 3.32103 72.7662 -18.5724 28.5679 57.8224C11.8034 80.7958 4.65084 201.632 17.5908 228.05C30.1021 253.59 57.5728 268.121 82.7985 278.454C98.5814 284.927 114.737 290.51 131.242 294.854C148.931 299.503 447.758 301.439 465.651 304.872C472.984 306.279 479.437 308.947 485.202 313.753C491.756 319.212 497.374 325.381 504.685 329.962C520.423 339.833 539.004 343.908 557.438 341.927C557.212 342.737 556.998 343.548 556.772 344.358C545.84 337.582 537.074 327.936 531.592 316.297C529.121 311.063 526.819 305.041 526.199 299.255C525.736 295.001 527.564 294.877 531.298 293.796C560.54 285.354 581.84 258.07 588.225 229.097C594.532 200.451 585.529 81.5838 568.403 58.3065C550.759 34.3312 524.789 18.1564 496.359 9.97332C479.279 5.05446 180.486 2.882 162.717 3.09586C144.622 3.30972 125.996 5.58343 110.45 15.5224C109.028 16.4342 107.708 14.1717 109.13 13.2712L109.073 13.2375Z" fill="#FFA800"/>
</svg>
