<svg width="44" height="44" viewBox="0 0 44 44" fill="none" xmlns="http://www.w3.org/2000/svg">
<path d="M24.0888 3.79565C23.1489 8.24053 23.2297 13.2786 24.1795 17.7003C24.9765 21.4107 26.0368 26.4274 30.4879 26.8465C33.9711 27.1746 36.798 23.6731 38.1046 20.7205C41.6996 12.5973 35.5818 5.0923 28.778 2.81264C25.2347 1.62542 21.1933 0.969617 18.2338 4.32277C14.5309 8.51823 14.5362 15.1987 14.8788 20.4213C15.2801 26.5376 17.0612 38.5049 24.6329 39.469C27.5356 39.8386 31.3636 36.8671 33.0268 34.6821C35.0395 32.0381 36.7196 27.3041 36.9906 23.8833C37.2035 21.1959 36.5642 16.5558 34.633 14.4521C32.5299 12.1609 28.7998 12.1232 26.3168 13.3978C17.6277 17.8583 15.0066 31.722 22.7676 38.8136C27.9261 43.5272 36.5084 42.7585 40.2679 36.4629C45.3981 27.8718 38.242 16.6938 30.4231 14.3381C24.3422 12.506 15.5211 16.5474 15.4617 24.5101C15.4411 27.2771 16.7476 28.427 19.2312 28.0005C22.499 27.4394 25.5627 24.8149 27.4179 21.96C28.5088 20.2813 29.6561 18.3926 29.7625 16.3326C30.0319 11.1188 25.8356 7.88026 21.9385 6.474C17.555 4.89223 9.67643 4.69318 5.35793 7.21482C1.42531 9.51113 1.07059 13.6673 3.64805 17.2729C8.7552 24.4171 21.1258 27.4924 28.519 23.3704C37.7647 18.2154 15.8622 12.0795 15.2286 11.7452" stroke="#522E92" stroke-width="3" stroke-linecap="round"/>
</svg>
