<svg width="44" height="44" viewBox="0 0 44 44" fill="none" xmlns="http://www.w3.org/2000/svg">
<path d="M17.5611 7.94603C19.9599 16.5812 28.0624 28.0666 36.0035 32.5369C41.7098 35.7491 42.4083 30.2674 41.8365 26.5576C41.0336 21.3491 36.361 10.1367 29.3557 10.0093C20.2845 9.84438 12.1753 34.1756 16.7033 40.5373C19.681 44.7208 25.9093 37.6353 26.4821 36.8319C32.3295 28.6306 36.3181 14.0052 28.1548 5.67222C18.4681 -4.21581 -1.56684 6.69793 2.54986 19.9888C6.6896 33.3541 32.0691 26.7558 29.227 13.6727C28.5152 10.3957 24.936 8.91596 22.1074 10.8936C16.9361 14.509 14.0755 23.8607 15.0306 29.7999C15.7211 34.0928 18.5379 30.3713 19.4054 29.1683C22.877 24.3533 22.8646 19.3503 24.5092 14.0095" stroke="#522E92" stroke-width="3" stroke-linecap="round"/>
</svg>
